<?xml version="1.0" encoding="UTF-8" standalone="no"?>
<svg
   xmlns:svg="http://www.w3.org/2000/svg"
   xmlns="http://www.w3.org/2000/svg"
   version="1.1"
   width="2780"
   height="1543"
   id="svg2">
  <path
     d="M 2779.92,1122.248 2132.33,0.30697114 1484.75,1122.248 Z"
     style="fill:#fbac30"
     id="path4" />
  <path
     d="M 2779.92,1122.248 2536.55,841.764 H 1728.1 l -243.35,280.484 z"
     style="fill:#12b17d"
     id="path6" />
  <path
     d="M 2132.33,1542.967 2536.55,841.764 H 1728.1 Z"
     style="fill:#bb255c"
     id="path8" />
  <path
     d="M 601.309,1019.795 H 294.059 L 262.84,1123.037 H 0 L 295.242,322.46697 h 304.86 L 895.363,1123.037 H 632.508 Z M 356.453,818.182 H 538.891 L 447.676,536.107 Z"
     id="path10" />
  <path
     d="M 735.684,322.46697 H 1010.53 L 1183.38,861.381 1356.21,322.46697 h 274.86 L 1335.81,1123.037 H 1030.95 L 735.684,322.46697"
     id="path12" />
  <path
     d="m 2085.59,522.917 -84.01,82.808 -88.83,-93.618 195.64,-189.64003 h 135.63 V 802.565 H 2085.59 V 522.917"
     style="fill:#f1f4d4"
     id="path14" />
</svg>
