<svg xmlns="http://www.w3.org/2000/svg" viewBox="0 0 595.3 841.9"><path d="M269 901.9c-108.6 0-217.3 0-325.9.1-3.2 0-4.2-.4-4.2-4 .1-317.4.1-634.8 0-952.2 0-3.7 1.1-4 4.2-3.9 141.6.1 283.3.1 424.9.1.5 4.3-.2 8.5-3.4 11.5-3 2.9-4.8 5.2-1.1 9 1.3 1.4.4 3.8 0 5.8-1.3 7.5-3.8 14.8-3.4 22.5.2 4.6-1.7 8.1-4.6 12.7-1-6.6.3-12.3-1.4-17.6-.4-1.3.5-3.4-1.8-3.4-1.9 0-3 1.5-3.1 3.3-.1 2.4-1.4 4.4-2.2 6.6-2.8 8-4.8 16.1-1.2 24.5 1.8 4.2 1.4 9.1-2.5 11.1-5 2.5-2.8 8.9-7.6 11-.7.3.4 1.9 1.3 2.3 1.3.6 2.7.9 4.1 1.3-.7 1.5-2 2.7-2 4.5-1 .1-1.7.6-1.9 1.6-12.6 6.7-21 17.2-28.7 28.9-6.9 10.5-16 18.8-29.2 20.9-5.1.8-10.2 1.9-13.2-5.1-.7 4.5 2.6 5.5 4.5 7.4-2.9 1.3-5.5-.5-9.2-.1 5.3 3.2 9.9 3.2 14.1 1 4.3-2.2 8.9-2.1 13.4-2.5-.5.6-1.1 1.3-1.6 1.9-.6.1-1.1.2-1.1 1l.1-.1c-1.6.1-3.1.6-4.1 2.1v-.1c-8.3 2.9-16.7 4.6-25.5 5.3-9.9.8-20.2 1.5-28.8 8.1-5.6 4.3-7.1 10-3.8 16.8 1.5-1 4.6 4.5 5-1.2-.3-1.3-.4-2.6.2-3.9v.1c.3-1 .7-2.1 1-3.1l-.1.1c1.5-1.5 3-3.1 4.6-4.6 1.2-3.2 5.3-2.6 6.9-5.3 6-5.5 13.5-5.3 20.9-6-.3 1.4-1.3 1.7-2.1 2.3-5.2 3.8-10.9 6.6-15.4 11.7-8.4 9.5-10.7 21.2-13.4 32.8-.5 2.2.4 4.4 2.2 6.3 3 3.2 6.3 5.7 11.4 7.3-11.5 3.8-21.9 7-32.2 10.8-6 2.2-12.2 4.1-17 8.7-.6 0-1.1.2-1.2.9-9 5.2-13.2 13.2-13.4 23.4-.1 4.1 2 7.2 6.1 8.8 3.9 1.5 7.7 3.9 12.1.4-11.8-1.7-15.4-8.3-10.3-18.2 2.3-4.5 5.9-8 9.7-11.3 8.5-7.3 19.8-7.3 29.7-11-.7 1.4-1.6 2.3-2.6 3.2-10.9 10.1-18.9 21.9-20.6 37.1-.9 7.9.1 15.4 6.7 20.9 4.6 3.8 4.6 4.5-.3 8.2-2.3 1.7-4.7 2.3-7.5 1.5-10-2.8-20.3-3-30.5-3.5-1.7-.1-3.2.6-4.7 1.6-3.6 2.3-6.5 5.2-8.3 9h.1c-.4.7-.9 1.4-1.3 2.1.6 4.3-.6 8.1-2.3 12-1.7 4 .9 9.7 4.6 12.2 2.6 1.8 7.4.8 7.9-1.7-4.1-11.7-.8-21.7 8.7-26.4.3.6.6 1.1.8 1.7 1.1 2.3 2.5.5 3.6.1 6.8-2 13.5-2.1 20.3.1-2.5 1.7-3.8 3.3 0 5 1.5.7 2.8 1.6 3.3 3.3-1.4 1.3-2.5-1-3.8-.3.1-.6-.2-.9-.8-.9-.2 0-.4.3-.6.4.5.2.9.3 1.4.5 2.5 1.7 4.1 3.7 2.8 7-.2.6-.2 1.3-.2 2-.2 5.1 3 8.9 5 13.2.9 1.9 3.2 2.1 5.3 1.8.6-.1 1.4-.3 1.3-1.2-.2-1.4-.9-2.2-2.3-2.9-4.4-2.3-4.7-4.5-1.6-8.9 2.7-3.9 5.7-1.3 7.5.4 2 1.8 4.4 2.8 6.2 4.6l-.1.1c-3.5 1.6-3.6 3.4-.1 4.8 2.4 1 4.3 2.3 6.4 3.7 6.2 3.9 14.1 3 19.2-3.3-6.1 3.7-11.4 4.8-18.1 1.7 7.9-3.4 15.3-5.1 21.8-10.8-.4 6.9-.9 12.5 3.3 17 1.1 1.2.3 2.2-.7 3-6.1 4.7-12.9 7.7-20.8 6.6-1.9-.3-3.2-.3-4.8 1 .8.3 1.4.6 2.1.8.8.2 1.7.2 2.4.6 9.8 5.2 18.9 3.8 27.3-3.2.9-.8 1.8-1.6 3-.5 3.1 2.7 6.8 3 11.1 2.8-2.3 4.3-4.8 8-6.3 12.2-2.6 7.5-4.5 15.1-5.7 23-1.6 10.4-4.1 20.7-2.2 31.2.6 3.4.8 6.3-1.7 9.2-1.4 1.6-2.3 4.1-.6 6 1.8 1.9 1 3.7.7 5.5-1.6 10.9-3.3 21.7-5 32.6-.3 2.1-1.1 4.7.2 6.4 2.3 2.9 1.5 5.7.8 8.7-2.2 9.6-4.5 19.1-5.1 29-.6 10.6.2 21.2-1.3 31.9-1 7.2-3.4 14.5-1.4 22 .2.8.4 2-.9 2.5-4.3 1.9-4.3 5.5-3.4 9.3.6 2.4.1 4.5-1 6.7-4.9 10.7-12.1 20.3-15 32-.2.9-.5 1.9-1.9 1.9-5.8-.1-4.8 4.6-5.7 8l.1-.1c-1.7-.8-1.6.6-2 1.6-3.4 7.8-6.6 15.6-8.9 23.7-3.4 12-6.8 24-9.5 36.3-1.6 7.2-2.2 14.8-5.9 21.4-3.1.6-5.6 2.8-9.4 1.4-11.3-4.4-23.2-6.6-34.6-.9-4.8 2.4-10.4 1.7-14.6 5.5-7.8 7.1-18.1 11.9-22.1 22.8-.2.4-.7.7-.9 1.2-5.6 9.4-12.5 18.3-11.1 30.2.5 4.1-1 8.3-2.8 11.3-3.5 6-2.8 12.1-1.8 17.8 2.4 13.4 5.9 26.6 9.1 39.9.6 2.4.7 5.4 2.9 6.7 3.6 2.2 4.6 6 6.5 9.2 2.8 4.7 5.2 9.8 8.7 13.8 3.9 4.4 8.3 9.1 13.5 11.5 11 5 22.3 9.3 35 7.9 13.7-1.5 25.3-6.5 33.7-17.8 3.6-4.8 7.8-9.1 9.8-14.9 2-5.9 2.8-12.6 10.2-14.8.1 0 .1-.3.2-.5 2.5-1.3 4.1-1.3 5 2.1 3.1 11.1 6.4 22.1 9.9 33.1 4 12.4 7.9 24.8 12.7 36.9 4.5 9 9.1 18.6 11.9 28.9zm-94.5-483.4c-3.8-9.9-10.8-14.9-19-18.4-1.4-.6-3.3-.6-4.5 1.1-.9 1.3-1.3 2.8-.1 4.1 6 6.9 13.5 11.2 23.6 13.2zm-88-83.4c5.4.7 5.5-3.8 6.1-6.8.7-3.6-3.2-2.4-5-3.2-2.4-.9-4.9.2-7.2 1-2.3.9-3.6 2.8-3.3 5.5.3 2.7 2.4 2.1 4.1 2.4 1.7.3 3.5.7 5.3 1.1zm91.4-290.8c-2.9-2.5-4.8-6.2-9.3-6.8-1.7-.2-3-.4-3.4 1.5-.4 1.6.2 3.1 1.9 3.5 3.5.8 6.8 2.4 10.8 1.8zm-76.4 336.9c2.3-1.3 3.4-2.9 4-4.8.6-1.7.6-3.5-1.5-4.1-2-.6-2.5 1.3-2.8 2.7-.3 1.9-.5 3.9.3 6.2zm-75.9 91.2c2-.6 3.3-1.6 3.3-3.9s-1.5-2.6-3.3-2.6c-1.9 0-2.7 1.1-2.5 2.9.2 1.7.4 3.4 2.5 3.6zm166.2 16.3c1.6-.6 3-1.6 3.1-3.7.1-1.7-.7-3-2.6-2.8-1.8.2-2.9 1.5-3.1 3.3-.2 1.6.5 2.9 2.6 3.2zM64.3 124.1c-1.7 1.2-2 3-2.1 4.8-.1 1.7.9 2.9 2.7 2.8 2.2 0 2.3-1.7 2-3.2-.4-1.6-.4-3.6-2.6-4.4zm-82.4-58.2c-.1-1.2-.3-2.5-1.8-2.5-1.5-.1-2.5 1-2.6 2.5 0 1.5 1 2.5 2.5 2.5s1.8-1.2 1.9-2.5z" fill="#bbe6fe"/><path d="M269 901.9c-2.8-10.3-7.4-19.9-11.3-29.7-4.8-12.1-8.7-24.5-12.7-36.9-3.5-11-6.8-22-9.9-33.1-.9-3.4-2.5-3.4-5-2.1-2.3.5-4.4-1.2-6.7-.2-7 3-14.4.8-21.4.7-5.8-.1-11.7-3.9-18-4.3-.5 0-.9-.4-1.4-.6 3.8-1 10 .9 8.3-6.8.7.8 1.5 1.3 2.5.5l.1.3.2-.3c3.6 2 3.8-1.2 4.5-3.1 2.3-6.3 2.4-13 2.2-19.6 1.2 4.2 2.7 8.3 2.6 12.6-.2 4.9-3.6 7.7-6.9 10.4-1.2 1-3.7.3-3.6 3 0 2.2 2 2.4 3.3 3.2 1.1.7 2.3 1.3 3.4 1.9 1.7 1 3.3 1.4 5 0 1.7-1.4 1.5-3.4.8-5.1-.8-2.2-2.1-4.3-3.7-7.3 3.2 2.3 4 1.4 4.1-1.4.1-4.3.5-8.6.9-12.9.3-3.4 1-6.8-.8-10.1-.3-.6 2.5-1.4.8-3.1-1.2-1.2-2-.2-3.1.3-1.7.8-3.3 1.1-3.7-1.4-1-6-2.4-11.9-2.4-18.1.1-5.7-3.3-11-1.5-16.9 1.9-1.7 3.8-3.5 5.9-5.4-4.4-2.5-8.3-4.9-9.9-9.2-1.3 2.1-.3 6.6-5.5 5.2 2.3-5.6 3.5-11.6 7.7-16.3.4-.5.2-1.6.3-2.4l3.6-24c3.7-6.7 4.3-14.2 5.9-21.4 2.7-12.2 6.1-24.2 9.5-36.3 2.3-8.1 5.5-16 8.9-23.7.4-.9.3-2.4 2-1.6-1.4 8 1.1 15.4 3.9 22.7.5 1.2 1.4 2.3 1.1 3.7-2.2 10.7-4 21.4-6.7 32-.9 3.4-2.3 2.9-4.5 1.7-3.1-1.6-5.3-4.2-8.3-7.2-3.5 15.6-6.9 30.3-10.2 45-1.4 4.6-2.5 8.8 4.5 9.5 1.5.1 2.2 1.7 1.4 3.5-.4.9-1.2 2.2.4 2.9 1.8.8 7.9-2.2 8.2-4.2 2.1-12.3 4.1-24.5 6.1-36.8 3-12.3 6-24.5 8.9-36.8 1.7-7.2 2.6-14.4-1.5-21.4-1.1-1.9-.5-4.3 1-6.8 7.4-12.9 13.6-26.4 18.6-40.4-7.6 11.3-11.8 24.5-19.6 35.2-2.7.4.7-4.9-3.4-2.6.9-3.4-.1-8.1 5.7-8 1.4 0 1.6-1 1.9-1.9 2.9-11.7 10.1-21.3 15-32 1-2.2 1.6-4.3 1-6.7-1-3.8-.9-7.4 3.4-9.3 1.3-.6 1.1-1.7.9-2.5-2.1-7.5.4-14.8 1.4-22 1.5-10.6.7-21.3 1.3-31.9.6-9.9 2.9-19.4 5.1-29 .7-3 1.5-5.8-.8-8.7-1.3-1.7-.5-4.2-.2-6.4 1.6-10.9 3.3-21.7 5-32.6.3-1.9 1.1-3.6-.7-5.5-1.7-1.8-.8-4.4.6-6 2.5-2.8 2.3-5.8 1.7-9.2-1.9-10.6.6-20.9 2.2-31.2 1.2-7.8 3.1-15.5 5.7-23 1.5-4.2 3.9-7.9 6.3-12.2-4.3.2-8.1-.1-11.1-2.8-1.2-1.1-2.1-.3-3 .5-8.4 7.1-17.4 8.5-27.3 3.2-.7-.4-1.6-.4-2.4-.6-.6-.2-1.2-.4-2.1-.8 1.6-1.3 2.9-1.3 4.8-1 7.9 1.2 14.6-1.9 20.8-6.6 1-.7 1.7-1.8.7-3-4.2-4.5-3.7-10-3.3-17-6.5 5.7-13.9 7.4-21.8 10.8 6.8 3.2 12 2 18.1-1.7-5 6.3-12.9 7.3-19.2 3.3-2.1-1.3-4.1-2.7-6.4-3.7-3.5-1.4-3.4-3.3.1-4.8 3.2 4.5 7.3 4.7 12.2 3.1 5.6-1.8 10.8-4.1 15.4-7.8 1.1-.9 2.9-1.5 2.5-4-9.7 4.5-18.6 11-30 8.6-1.9-1.8-4.3-2.7-6.2-4.6-1.8-1.7-4.8-4.3-7.5-.4-3.1 4.4-2.8 6.6 1.6 8.9 1.3.7 2.1 1.5 2.3 2.9.1.9-.6 1.1-1.3 1.2-2.1.4-4.5.2-5.3-1.8-1.9-4.3-5.2-8.1-5-13.2 0-.7 0-1.4.2-2 1.3-3.3-.4-5.3-2.8-7 1.3-.7 2.4 1.7 3.8.3 1.8-1.9 3.5-3.9 7.1-4.7-3.8-2.2-6.8-3.6-10.4-3.6-6.7-2.3-13.5-2.1-20.3-.1-1.2.3-2.5 2.2-3.6-.1 14.9-6.1 29-3.9 41.9 5.2 4.5 3.1 8.8 3.1 13.7 2.2 2.2.8 4.1-.1 6-1 1.3-.2 2.8.1 3.9-1.1 1 0 1.9-.7 2.9 0-1.1 6.9-6.5 9-12.2 10.8 7.4-1.2 14.1-3.6 20.1-8 5.1-3.7 8.8-8.6 10-14.9.3-1.5 2.2-3.7-.3-4.6-2.4-.9-4.4.1-5.4 2.9-2.2 6-5.9 10.7-12.2 12.8-.9.5-2.3-.4-3 1-1.4.1-2.9-.1-3.9 1.1l-3.9-.6c3.3-1.5 6.3-3.3 8.5-6.2 3.3-2.7 4.3-6.4 5.2-10.6-1.4 1.8-2.6 3.3-3.9 4.8-.7.8-1.7 1.4-2.5.7-.5-.4-.6-1.6-.5-2.3.2-.9.7-1.9 1.2-2.7 3.2-5.6 2.4-10.5-1.6-15.5-8.2-9.9-8.3-21.7-.6-32 1.5-2 3.2-3.9 4.9-6.1-2.4-.5-3.4 1-4.7 2-4.7 3.5-8.4 8-12.3 12.4-9 10.1-7.4 23.4 4 30.8.8.6 2 .8 1.5 2.1-.5 1.1-1.6 1-2.6.8-1.6-.4-4-1.8-4.6-1.2-4.1 3.7-5.3-.7-7.3-2.4-.8-.7-1.3-1.9-2.6-2-.1-.3-.2-.5-.3-.8-.1.1-.3.2-.4.3.2.2.4.4.6.5.1.6.2 1.3.5 1.9 2.5 6.6 8.9 7.6 14.2 10.4-4.2 2.5-7.5-.4-11-1.9-1.4-.6-2.8-2.1-4.4-.2-1.4 1.8-3 3.4-4.7 5.3 2.2.9 4.5-.8 6.6 1.4-3.2.5-5.8 2.2-8.8 1.8-5.2-.9-10.2-2.6-15.4-3.1-6.2-.6-12.3.3-17.3 4.6-9.6 4.8-12.8 14.7-8.7 26.4-2.7-.8-4-2.9-4.8-5.3-2-6.5.2-12 4.1-17.1 3.6-4.7 8-8.5 15-11.1-8.9-1.1-15.6-.3-20.4 6.4-.7 1.1-1.1 2.9-3.1 2.4 1.8-3.9 4.7-6.8 8.3-9 1.4-.9 2.9-1.7 4.7-1.6 10.2.6 20.5.7 30.5 3.5 2.8.8 5.2.2 7.5-1.5 4.9-3.7 4.9-4.4.3-8.2-6.6-5.5-7.6-13-6.7-20.9 1.8-15.2 9.7-27 20.6-37.1.9-.9 1.9-1.8 2.6-3.2-9.9 3.7-21.1 3.6-29.7 11v.1c-1.1-1.3-2-2.6 0-3.9.8-.1 1.7-.1 2-1.1 13.1-5 28-5.2 40.4-15-5.1-.1-8.7 1.9-12.3 3.1-9.7 3.3-19.8 5.5-28.5 11.3-.9.1-1.7.2-2.1 1.2l-2.4.6c-.1-.2-.3-.3-.4-.5 4.8-4.6 11-6.5 17-8.7 10.3-3.7 20.7-7 32.2-10.8-5.1-1.6-8.5-4.1-11.4-7.3-1.7-1.9-2.7-4.1-2.2-6.3 2.7-11.6 5-23.2 13.4-32.8 4.5-5.1 10.2-7.9 15.4-11.7.8-.6 1.8-.9 2.1-2.3-7.4.7-15 .5-20.9 6-.9-1.2 1.7-1.6.7-2.9-14.3 2.4-19.5 8.4-18.3 20.8-3.2-6.7-1.8-12.5 3.8-16.8 8.6-6.5 18.8-7.3 28.8-8.1 8.8-.7 17.2-2.4 25.5-5.3-1.4 2.2-3.8 2.5-5.9 3.1-4.8 1.4-9.3 3.5-13.5 6.1-11.2 7.1-21 15.5-25 28.7-4.1 13.6.8 17.5 12.6 15.9-.1 3.7-3.7 1.7-5.1 3.2-4.6 0-8-2.5-11.4-6.3-.1 5.4 2.9 7.7 6 9.9 6 4.2 13.2 5.1 20.1 5.8 15.8 1.7 31.5 0 46.5-5.9-.7-1.5-3.2-.2-3.5-3 13.6-2.3 23.3-11.4 33.3-20.8.7 3.2-2.1 3.9-2.2 5.8 3.3.6 4.3 2.6 3.2 6.9-1 4-1.7 8-4.5 11.4-.7.8.3 3.2-1.7 3.5-2.2.2-1.9-1.8-2.1-3.2-.2-1.1-.8-2.1-1.9-1.9-.9.2-1.8.9-2.3 1.7-.8 1.3.9 1.9 1.4 2.1 5.9 2.7 3.7 6 1.1 9.8-10.8 15.6-25.3 26.6-41.9 35.3-5.8 3.1-11.7 6-19.1 5.7 3.8 2.1 7.7 1.3 10.4.1 15.6-7.1 30.4-15.8 41.9-28.8 6.4-7.2 12.5-14.7 15.6-24.2.3-1.1.5-2.7 2.3-2.9 1.8-.2 1.7-.3 1.6-1.9.2-.2.4-.5.5-.7.8.1 1.6.7 2.2-.2 4.4-6.7 7.8-13.8 11-21.2.5-1.1.1-2-.9-2.5-1-.6-2.2-.9-3.1.2-.6.8-1 1.8-1.7 2.4-3.3 3.2-2.8 8.7-6.8 11.9-.8-6.3-.8-6.3 2.2-10.3 1.2-1.6 2.3-3.2 3.4-4.9.6-.8 1.3-1.8.1-2.5-1.2-.6-1.4 1.1-2.2 1.4-.3-.4-.7-.8-1-1.2.6-2.9 3.5-5.4 2.7-8.3-.8-2.9-1.5-5.3 1.3-7.8-2.4.6-5-1.1-6.8 1.5-.5.8-1.7 2.1-2.8.8-1-1.2.4-2.1.9-3 3-5.1 6.8-9.7 8.6-15.4 1.3-1.9 1.7-4.6 4.1-5.7 2.1 3 .6 7.1 4.3 10 3 2.3 3 6.5.4 9.9-.3.4 0 .9 1.1 1 2.5-5.6 4.9-11.4 7.5-17.1 1.2-2.7 1.1-5.9 3.9-7.8.6 2 .7 3.8-.4 5.8-2.9 5-3.6 11-6.8 15.9-1.3 2-1 4.7 2.3 4.3 6.5-.8 12.8 1.7 19.3 1.1 1.9-.2 4-.4 5.7 1.3-3.1 4.5-8 2.8-12.3 3.4.8 1 1.4 1.8 2 2.6-1.4 1-3-.8-4.2.5 1.9 2.3 6.2 4.1 4.8 7.1-1.3 3-5.6 3.4-9.1 3.6-4 .1-7.9.8-11.9.8-1.6 0-2.4.4-3 1.8-1.7 4.1-3.5 8.2-5.3 12.3-1.6 1.2-2.1 3.1-2.8 4.8-.2.4-.4.9-.6 1.3-2.7 3.1-5.9 7-5.6 10.5.5 5.5 2.9 11 6.9 15.4.4 4.6 3.3 7.9 6.7 10.5 6.9 5.4 14 10.7 21.6 15.3 15.2 9.2 24.9 8.7 39.2-1.9 14.7-10.9 24.2-24.5 24.2-43.5 0-2 .5-4 .6-6 .6-12.3 1.5-24.6-.7-36.8-.6-3.4-2.2-5-5.6-4.9-6 .2-11.9.9-17.5 3.3-4.9.9-9.8 2-14.5 3.9-.8-3.8.4-5.8 4.6-6.1 2.6-.1 5.2-1.3 7.8-1.8 7.7-1.5 15.4-3.9 23.5-.7-1.8-8-7.1-14.4-9.1-21.7-2.4-8.6-9.4-11.4-15.3-15.9-1.4-1.1-3.8-2.2-4.1 2.3-1.7-4.6-4.3-4.4-7.7-4.8-3.7-.5-6.9 1.6-10.3.5-6.6-2-11.1-.9-15.2 4.6-2.1 2.8-3.6 5.9-5.4 8.9-.3-.2-.5-.3-.8-.5-.6-3.5 3.4-5.4 3.1-8.8.9 0 1.2-.4.8-1.2h.7v-.4c-.2.2-.4.3-.6.5-.5.2-1.1.3-1 1-.6.1-1.1.2-1.7.3-.2-.1-.3-.3-.5-.4 1.5-7.2 4.8-13.8 8.9-19.8 5.1-7.5 14.2-10 22.7-6.6 1.4.5 2.7 1.4 4.3 1.1 1-.2 2.4.9 2.9-.9.3-1.3-.4-2.2-1.5-2.8-3.7-2.3-7.1-5.1-11-6.8-6.8-3-13.7-4.1-20.9.1-6 3.6-12 7-17.5 11.3-1 .8-1.9 2.6-3.8 1.3.9-2.2 1.8-4.2 4-5.8 2.9-2.1 2.7-4.6-.1-6 5.7.3 8.9-4.8 14.7-5.5 10.3-1.3 20.3 1.2 30.4.5.2.3.3 1 .9.3l-.9-.3c-6.1-6-13.3-7.2-21.3-5.1-2.5.7-5 1.5-7.5 2.2l-.3-.3c-.1-.6-.3-1.1-.4-1.7 19.1-8.2 32.5 2.1 45.6 14.7.7-5.1-.9-8.7-3.6-12 2.6-.6 4.3.8 5 3 3.3 10.4 4.9 20.9 1.4 31.5-.6 1.7-.6 2.3 1 2.8 12.5 4.4 23.2 11.2 30.7 23.2.2-16.2-12.4-28.3-23.5-32.4-2.8-1-2.4.9-2.6 2-.4 2.3.3 4.9-2.8 7 .3-5.9.2-11.2 3.3-15.9 1.1.8 2 1.7 3.2 2.3 17.5 9 26.2 23.8 27.3 43 .5 8.4 4.2 14.9 9.1 21 2.4 3 5 5.8 7.6 8.6 3 3.2 5.3 6.9 6.3 11.2.7 2.7 1.5 5.2 3.2 7.4-1.1.1-1.5.8-1.3 1.8-1.1 3.2.2 6.5-.8 9.8-2.3 7.6-7.3 12.7-14.2 16.2 4.1 6.7 4.4 6.7 9.8 1.5 3.1-3.1 5.4-6.7 6.2-11.1.3.5.6 1.1.9 1.6-1.9 5.4-5 10.1-9.9 13.3-2.4 1.5-2.4 2.8-1.2 5.1 3.6 7.2 5.6 14.9 5.5 22.9-.2 6.6-.7 13.2-5.6 18.4-1.3-1.9.5-3 1.1-4.4 3.2-6.8 3.5-13.8 2.6-21.1-3.2 1.3-2.2 3.6-1.8 5.6 1 5.3-.4 10.2-2.5 15-1 2.2-3.5 3.6-3.5 6.3-2.5-.4-3.1 3.6-5.9 2.5.5-1.5 2-2.1 3.1-3.1 8.5-7.6 11.5-23.6 6.3-34.2-.8.1-1 .8-1.1 1.4-.7 8.2-4.5 14.7-10.6 20-1.5 1.3-2.3 2.7-2.7 4.6-1 4.5-3.7 8.1-6.8 11.4-2.8 3.2-6.7 4.7-10.5 7 7.8 3.5 20.3 4.8 25.7 3.1 15.6-5.1 31.5-7.9 47.9-8.1 7.4-.1 14.8-.9 20.1 6.9 2.8 4.1 7.1 7.4 9.9 11.6 5.5 8.3 9.4 17.2 12.4 26.8 2.8 8.9 4.9 17.8 5.8 26.9.7 7.1 1.2 14 5.4 20 2.6 3.8-.1 7.8 1.3 11.9 3.2 8.7 7.7 16.9 10 26 .5 3.3-1.9 6.1-1.1 9.5.4 2.1-1.4 1.6-2.7 1.7-3.6.4-7-1.9-11.9-1 4 1.1 7 2.5 10 2.7 8.7.5 12.3 6.3 15.4 13.3 8.7 19.6 15 40 21.2 60.5 4.5 15.2 8.2 30.7 16.3 44.5 3 5.1 6 10.2 5.9 16.5 0 3.8.5 7.6 1.2 11.3 1.9 9.9 4.1 19.8 6 29.7.9 4.6.8 9.3.2 15.1-2.4-3-3.9-4.9-5.6-6.9-2.4 4-.6 7.3 2.4 8.5 3.7 1.4 3.4 3.8 3.5 6.5.9 33.6-6.6 65.8-15.8 97.7-.6 2.9-.6 6.1-1.9 8.7-6 12.5-.8 27-7 39.5-.2.5.3 1.3.2 2-.6 4.9 2.3 9.3 2.2 14.1-.3 12.8-.2 25.6-1.1 38.4-.4 5.1-.1 11.1-5.1 14.9-4.8 3.7-9.7 7.2-14.7 10.7-1.4 1-3.4 1-4.8.4-4.1-1.8-7.8-.7-11.4 1.1-2.4 1.2-4.3.7-6.5-2.1 5.7 2.4 9.3-.9 13.2-3.2.7-.4 1.6-.9 1.2-1.9-.3-.9-1.1-1.1-2-1.2-4-.4-8-.6-11.2 2.6-1.2 1.1-2.3 2.4-4.2 1.6 0-1.4 1.1-2.1 1.8-2.9 2.6-2.7-2.4-3.8-1.2-6.4.3-.7-1.5-1.3-2.4-1-2.7.8-5.7 1.2-6.7 4.4-.9 2.9-2.6 5.3-4.2 7.9l-.9.3c-2.2-2.5.9-3.6 1.4-5.3.7-2.1 3.6-4.2.7-6.5-2.7-2.1-6.5-.8-7.9 2.5-1.3 3.2-3.9 5.3-6.4 7.4-.4-.7-.8-1.3-1.3-2 0-2.5 0-5 .2-7.4.5-6.1-3.1-9.3-8.9-7.5-5.9 1.8-8.3-.2-7-6.2 1.3-6.3 3.6-12.3 6.1-18.2 3.2-3 6.5-6 9.6-9 .4-.4.4-1.2.4-1.9.2-4.5-.4-8.9-1.6-13.2-.6-2.2-1.9-4.7-4.2-5.2-2.7-.7-2.9 2.7-4.5 3.9-1.5 1.2-1.4 4.9-4.8 3 3.4-3.5 5.2-8.1 6.9-12.4 1.8-4.5 4.8-6.1 9.1-6.8 6.2-1 12.4-2.2 18-5.3 3-1.7 6.4-3.2 4.1-7.9-.5-.9.3-3.3 1.3-3.9 2-1.4 1.2-2.8.8-4.3.5-.7.5-1.3-.2-1.8 0-1-.1-1.9-.1-2.9.6-1.7.5-3.3-.1-4.9.1-3.3.2-6.6.2-10 0-.7 0-1.4.1-2.1.1-3.6.2-7.1.2-10.7.4-6.5.4-13.1-.1-19.6v-3.1c-.3-17.1-.5-34.3-2.7-51.3-1.1-8.1-2.6-15.8 7.7-20-4.5-1.3-5-4.3-5.1-7.1-.4-11.8-2.9-23.3-5.5-34.8-.8-3.4-1.2-7.1 1.6-9.9 3.3-3.4 2.7-6.5-.4-9.5-2.8-2.7-3.9-5.9-3.3-9.9 1.1-7.7-1.4-14.4-6.1-20.4-3-3.8-5.5-7.9-8.3-11.9-11.8-17.1-24-34-31.4-53.7-2.3-6.1-4.6-12.2-7.3-19.4-1.9 8.5-4.8 15.2-8.2 21.7-9.7 18.6-22.2 35.5-32 54-3 5.7-4.7 11.9-6.5 18-3.2 10.5-3.2 21.6-5.8 32.2-.5 2 .8 2.6 1.7 3.7 3.4 4 3.4 7.5.1 11.6-.7.9-.7 1.7-.2 2.1 4.9 3.8 5 9.9 7.7 14.8 5.6 10.2 10.8 20.7 14.1 31.9 2.7 9.5 5.6 18.7 11.2 27.3 11.5 17.8 19.6 37.3 24.8 57.9 3.2 15.9 5.1 31.8.1 47.6-1.6 7.2 1 14.8-1.1 21.9h-1.4c-.3-5.9-.5-11.8-.8-17.8-1.1 4.9-1.8 9.8-3.3 14.5-.7 2.2-3.3 3.9-1.8 6.7 2.9 5.6 2.8 11.8 3.2 17.9 1 15.2 7.6 29.2 9.2 44.2.5 4.6 3.5 6.9 6.3 10 1.3-2.9-.8-6 1.5-8.3 2.2.8 1.3 3.1 2.5 4.2-1.4 4.4 1.4 8.3 1.9 12.4 1.2 10 3.2 19.8 6 29.5.3 1.8.5 3.6.8 5.4 2.7 14.5 6.1 28.8 7.2 43.5h-58c.2-1.3-.5-2.2-1.1-3.2-9.8-19.6-17.7-39.9-25.6-60.3-4.7-12-8.4-24.5-12.5-36.7-4.4-19.6-13.3-37.9-17.6-57.6 3.9-1.4 5.1-6.3 7.3-10.1 5.8-9.8 9.2-20.4 10.2-31.7.2-1.7.2-3.5-1.9-4.1-1.6-.5-2.7.5-2.9 1.9-.6 5.2-3 9.9-3.8 15.1l-.3-.1.2.1 2.4-1.8c.2.3.4.6.7.8-3.2 10-7.5 19.5-14.8 27.2-2.1 2.2-2.4 3.7-.1 5.7 2.5 2.2 3.5 5.2 4.4 8.2 4.5 15.4 9 30.9 13.5 46.4.6 1.5 1.3 3 1.7 4.5 9 32.7 19.7 64.9 34.1 95.7h-66c-15.9-37.4-28.1-75.9-36.6-115.7.9 14.6-.4 29.3 2.2 43.8 4.3 23.9 7.7 47.9 11.4 71.9h-96c-1.7-4.1-3.2-8.3-5.1-12.3-12.2-25.1-22-50.9-27.4-78.4-4.3-21.6-7.9-43.2-5.5-65.3.2-1.5-.5-2.8-1.5-3.5-1.8-1.3-2.1-3.3-2.9-5.1-2.8-6.6-2.9-13.6-2.7-20.6.1-3.9-1.4-6.7-4.7-8.7-.9-.6-1.6-1.1-2.5-.1-1 1.1-.3 1.9.5 2.5 3.3 2.2 3.2 5.5 3 8.9-.4 7.3.3 14.3 3.2 21.2 1.3 3.1 3.1 6.1 3.1 9.8-.2 7.7.7 15.3 1.4 22.9 3.6 37.9 12.5 74.4 27.9 109.2 2.8 6.3 6.1 12.5 7.3 19.5-7.3.7-14.7.7-22 .7zm-76-199c-.3.3-.6.7-.9 1 .2.1.4.3.5.4.2-.4.3-.9.5-1.3.1-.2.3-.3.4-.5-.1.1-.3.3-.5.4zm81-421c-1 .2-1.2 1-1.1 1.9-3.6 4.5-2.8 10-3.1 15.2-.1 1 .6 2 1.8 2 .8.1 1.2-.7.9-1.4-1.9-5.3.7-10.5.5-15.8 1.1-.2 1.3-.9 1.1-1.9.2-.1.4-.2.6-.4l-.2-.4c-.1.4-.3.6-.5.8zm161.4 268.9c-.4.1-.8.1-1.3.2-2.2-.2-4.4-.2-6.5.5-5 .6-10.2 0-15 2.3-.9.4-2.3.6-2.6-.5-.6-1.9 1.3-1.4 2.2-1.7.9-.3 1.9-.6 2.9-.7 6.5-1.1 12.9-2.2 19.4-3.4-7.1-1.6-14.3-1.8-21.3-1-11.6 1.4-11.9 2.1-11.4 13.6 0 .8.2 1.7.1 2.5-.4 2.6.7 3.3 3.3 3.3 10.1.1 20.2-.5 30.1-2.2h.2c3.7.3 7.3.3 10.9-.6 4.3.8 8.7.5 13 .2 2.1.3 4.6 1.6 6.1 0 1.5-1.7-.9-3.5-1.5-5.2-.3-.8-.4-1.6-.8-2.3-.8-1.4-1.3-4.4-2.5-3.8-3.9 2.1-6.8-1.6-10.2-1.2v-.3l-.1.2c-5-1-9.9-1-14.8.1l-.1-.2-.1.2zm-9.3 74.9c-1.2-1.5-2.5-2.9-5.4-2.8 1.9 1.4 3.3 2.4 4.7 3.4 1.3 1.4 2.6 2.8 4.5 3.6 7.6 6.2 15.1 12.3 22.7 18.5 2.9 3.2 5.4 7.6 11 4.5.5-.3 1.3 0 2 0 13.6-.6 27.2 0 40.7 2.7-3.3-13.7-4.7-17.3-18.1-18.9-7.2-.9-14.3-.3-21.4 1.1-1.2.2-2.8-.3-3.3 2 8.1-.1 16.1-.9 24.1.5-9.7 1-19.5 1.7-29.2 2.2-.8 0-1.8-.8-2.6-1.3-10-7.5-19.9-15-29.9-22.5-6.4-4.8-12.8-9.6-12-19 0-.2 0-.3-.1-.5-.2-2.5-2.2-2-3.8-2.2-2.5-.2-2 1.5-2 3 .1 8.6 2.5 15.8 11.6 20.6-2.2-2.6-3.7-4.6-5.3-6.5 5.5 3.5 10.3 7.5 15.3 11.3 7.3 5.6 14.7 10.9 21.9 16.5.9.7 4.4 1.3 1.3 3.7-7.5-5.5-14.9-11.1-22.4-16.6-1.2-1.3-2.5-2.5-4.3-3.3zM268 269.9c1.6 2.8-2.4 4.6-.9 8.3.2-3.8 9.1-4.4 2-9.4-2.6-2-2.6.6-3.2 1.9-6.5 5.9-8.9 13.1-6.4 21.8 2.4-7.2 3.5-14.8 6.5-21.7.6-.3 1.3-.6 2-.9zm185-43c-5.1 3.7-8.5 9.4-15 11.3 7.3-.5 13.7-5.6 15-11.3.2 0 .4 0 .7.1 0-.2 0-.4-.1-.7l-.6.6zm-109 59.9c6.2-7 10.7-14.8 11.2-24.5.5-.6 1-1.4 1.6-1.8 1-.7 3-.8 2.1-2.6-1-1.8-2.6-3.5-4.3-4.7-.8-.6-1.1 1.1-1.3 2-.6 2.6 1.3 4.5 1.7 6.8-1.7 3.7-2.4 7.7-4.5 11.3-2.5 4.2-4.4 8.8-6.6 13.2-.5.2-.9.4-1.4.6.1.1.2.3.3.3.6.4 1.1.2 1.2-.6zm-2-24.8c-7 2.8-14.2 12.2-12.9 19.6 3.6-7.7 6-15.3 12.9-19.6.1-.4-.1-1 .6-.6l-.6.6zm-8.9 83.3c-1.1-.3-1.3.8-1.8 1.3-4 2.9-6.8 6.4-6.1 12.1 3.5-3.1 3.8-7.7 6.6-10.6 1.6.7 1.2 1.7.8 3.1-1.7 5.8-1.8 11.5 1.6 16.8.2 1.6.9 2.9 2.7 4.1-.3-1.6-.5-2.9-.7-4.2l-.3-6.6c.1-.1.2-.2.2-.3 0-.2-.2-.4-.3-.6.1-3.4.1-6.8.2-10.2.3-.8.6-1.5.2-2.4.1-.8.1-1.6.2-2.4.1-.5.2-.9.3-1.4.5-2.7-.9-6.4 3.9-6.6 9.5-.5 18.9-1.1 28.4-1.4 3.7-.1 6.8.3 10.7-2 18.6-11.2 39.3-17.6 59.5-25.2 11.4-4.3 22.1-5.9 33.8-.3 9.8 4.7 20.5 7.5 30.9 11.2 9.9 3.5 18.4 8.9 25.2 17.1 1.5 1.8 1.6 4.9 4.5 5.6-1.2 1.9-.3 2.9 1.5 3.4.5 6 4.9 10.3 7.1 15.5 3 7.5 9.1 9.4 17.4 9.3-2.8-1.5-4.7-2.6-6.6-3.6-1.5-.8-4.1-.9-3.8-3.1.2-2.1 2.5-2.7 4.4-3.5 6.2-2.5 12.9-2.9 19.5-3.6-1.9-6.1-3.5-7.2-9.3-6.6-5.9.6-11.4 2.3-16.4 5.5-1.4.9-2.4 1.2-3.1-.5-.5-1.2-.8-2.6 1-3.2 1.2-.5 2.4-1.1 3.7-1.5 6.6-2.3 13.3-3.9 20.6-3.8-.7-2.2-.2-5.2-2.7-5.5-4.8-.7-9.6-1.4-14.7-.8-6.2.8-10.9 5.2-17 5.6.1-1.7 2.7-1.9 2.3-3.9-1.5-1.5-2.4 1.5-3.8.5 3.1-4 2-7.4-1.5-10.6-7.2-6.5-15.4-11.1-24.2-15.1-15.6-7-32-12.1-47-20.3-1.7-.9-3.1-.5-4.7 0-26 7.7-51.1 17.8-75.1 30.5-4.2 2.2-7.8 4.3-12.9 3.1-6.4-1.6-11.8 2.2-17.6 4-1.7.5-3.7 1.9-4.8-.9 5.2-.7 9.3-3.7 13.6-6-4.7 0-8.7 2-12.8 3.7 0-.6 0-1.2.1-1.7 1.9-3.4 5.5-5.5 7.1-10-4.3 2.6-8 4.8-11 8-1.1.5-1.9 2.7-3.1 1.6-1.7-1.5.4-2.5 1.3-3.5.4-.5 1.1-.9 1.3-1.5 2.7-8.7 7.9-16 12.1-23.9 2.6-4.9 4-9.8 3.2-15.3 1.1-2.7 2.2-5.4 3.9-7.9 2.2-3.4 3-10.9 1.5-14.6.5 8.3-3.4 15.2-7 22.1-.6 1.3-2 2.8-1.8 4 1.2 6.8-3.2 11.6-5.6 17.1-3.4 7.7-9.1 14.3-10 23.1-.2 1.8-1.4 1.6-2.5 1.1-4.1-1.8-4.9.5-5.2 3.8-.6 5.7-5.2 9.9-11.4 10.5-6.2-3.6-11.7-8.2-18.6-10.5-1.3-.4-2.1-.5-3 .4-.7.7-.9 1.4 0 2 6.3 3.6 11.6 8.9 18.8 11.1 1.1 1.9 2.3.3 3.3 0 3.9-1.2 7.7-2.5 11.6-3.8 1.2-.4 2.6-1.1 3.1.9-1 .4-1.4.9-1.7 1.3zM446 153.9c-.8.7-2.6 1.1-1.5 2.5 5.6 7.3 5.9 16.3 8.1 24.7 1.6-5.1 1.7-9.8-.9-14.9-1.3-2.4-3.5-5-2.6-8.3.4-.7 1.3-1.4 1.2-2.1-.6-9.5-2.8-18.6-5.9-27.6.9 8.6-1.8 17.3 1.6 25.7zm-44.1 64.3c6.1-2.2 12.2-4.2 18.4-5.8 5.9-1.5 6.6-3.1 4.8-9.8-7.6 5.8-15.3 11.2-24.1 14.6-10.9.5-17.9 9.3-28.2 12.7 4.7 1.7 8.9.3 12.8 1.4 1.5.4 1.8-.6 2.2-1.3 3-6 8.6-8.9 14.1-11.8zm54.8-97.7c-.6 2.1-1.2 4 .3 6.1 9.3 12.8 11.1 27 7.6 42.2-.4 1.6-.6 3.1 1 4.5 5.2-14.4 1.9-28.3-3.4-42.4 2.4.1 1.8 2.7 4 2.7-1.5-4.7-3.4-9.1-6.3-13 1.1-2.9.1-4.4-3.3-4.9-.1 0-.1-.3-.1-.4-.1 1.1-.2 2.2-.2 3.2 0 .8.3 1.4.4 2zm134.6 582.3c.6-2.3 2.2-4.7-.2-6.9 2.1-.6 2-2.4 2-4 .1-6.9 0-13.9.3-20.8.4-9.5-1.7-18.7-1.7-28.1 0-10-.1-10.1-9.8-8.5-3.3.5-4.2-.3-4.3-3.6-.4-11.4-1.1-22.9-3-34.2-.4-5.6-1-11.2-3.4-16.5l2.1 17.1c.2 2 .4 4 .6 6.1v.1c.5 8.6 1 17.3 1.5 25.9v.2c-.2 6-.3 11.9.4 17.9-.7 6.1-.7 12.1-.2 18.2-.6 4.2-.8 8.4-.4 12.5-2 6.8-.7 13.7-1 20.5-.1 2.2.3 4.5-3.3 4.9-2.2.2-2.2 1.7-.1 4.1 0 3.2 2.4 2.1 3.9 2 13.2-.5 26.2-.6 38.4 5.5.9.4 2 1.1 2.6-.2.6-1.4-.1-2.4-1.4-3.2-4.3-2.7-8.4-5.7-13.3-7.8-4-1.7-6.1-2.3-7.6 2.8-.9-1.7-1.5-2.8-2.1-4zM287 276.9c1.5 1.2.6 3.7.3 3.5-2.3-1.5-4.2 1.1-6.5.2-3-1.1-3.1-.7-3.8 2.9 10.3-.5 10.3-.5 12.9 2.3h-11.8c-1.1 0-2.2-.5-3.2.7-1.8 2.3-1.5 11.7.5 13.9 1.3 1.4 2.6 2.1 4.7 1 3.1-1.5 5.5-3.7 7.3-6.7.5 1.1.8 1.9 1.2 2.7 10.1-4.8 21.3-8 29.1-18.4-6.3 3.2-6.3 3.2-13.3 3.4-1.5 0-3 .2-4.4.5-4.7 1.2-10.3-1.4-13-6zm206.3 96c.8-.7 2.5-1.1 1.7-2.3-1.3-2.1-3.5-3.5-6-4.1-.8-.2-2.8-.2-2.8 1.2.1 3.1-3 3.7-4.1 5.8-15.5 13.1-33.6 20.5-53.1 25.2-8.5 2-8.5 2-9.1 10.4 0 .3.3.6.6 1.4 12.8-3.5 25.7-7 38.1-12.1 11.1-4.5 22.3-8.8 29.5-19.3 1.7-2.2 3.5-4.1 5.2-6.2zM261 193.9c-.1.7.4 1 1 1 4.3 5.3 10.1 5 15.9 4.2 4-.5 7.6-1.9 7.7-6.9-.1-.1-.3-.3-.4-.2-.6.1-1.3.2-1.8.4-7.3 3-13.9 1.2-20.3-2.9-2.1-1.4-3.2-3-2.8-5.6.4-2.5 2.5-2.1 3.9-2.7 7-2.7 14.6-4 22.6-8.3-13 2.1-24.4 1.5-35.9-.8-.9-.2-2 .1-2.8.5-15.3 8.9-29.1 19.5-36.4 36.3-3.4 7.9-6.2 16.1-3.2 24.9-3-12.9 8.8-35.5 16.2-37.5.2 1.2-1.8 1.5-1.2 3.2 8.6-6.4 18.1-10.8 28.2-14.1 3.1-1 5.3-1.9 5.8 2.8.3 2 1.5 4.3 3.5 5.7zm42.5 110.6l.6.6c-1.8 3.4-3.7 6.7-5.2 10.1-3.3 7.6-8 13.8-14.5 19.1-10.1 8.2-16 19-16.7 32.2-.1 1.6-1.1 4.1 1.5 4.5 2.7.3 2.4-2.2 2.6-4 1.2-11.5 6.4-20.9 13.9-29.7 4.4-5.1 9.8-9 12.6-16.4 3.9-10.4 11-19.9 19.6-27.8 3.5-3.2 6.8-6.9 8.7-11.6-11.9 8.9-25.4 14.7-39 19.9-5.1 2-5.7 5.2-5.4 9.4.2 3.3 1.5 5 4.6 1.9l.6.6c-.6 1.7-3.5 2.7-2.5 4.5 2 3.7-.5 5.5-2.5 7.6-3.1 3.4-6.3 6.7-8.6 10.7-.7 1.3-2.7 2.6-.8 4.3 2 1.7 2.8-.5 3.9-1.6 4.7-4.5 7.8-10 13.5-14.1 5-3.6 7.1-11.3 10.6-17.2.7-1.1 1.7-2 2.5-3zM564 718c2.9 1.1 6.4 1.2 9 2.3 7.2 3.1 14.9 2.7 22.2 4.3 4.9 1.1 9.8 1.6 14.5 3.3 1.6.6 3.6 1.5 2.8 3.4-.8 2-2.5.2-3.8-.2-3.4-1-6.7-2.2-10.1-2.7-2.6-.4-5.8-1.4-7.6 2.1.7.4 1.3 1 2.1 1.2 1.6.4 2.4 1.7 2.1 3-.4 1.8-2.1.8-3.2.9-2.5.1-5-.3-7.5-.2-1.6.1-3.9.1-4.2 2-.2 1.3 1.1 3.2 2.7 3.8 6.2 2.5 10.9 7.8 17.5 9.9 1.8.6 5.2 3.1 4 5.5-3.4 6.9-2.6 16.5-12.4 19.7-2.7.9-4.4 1.4-6.5-.6-.9-.9-2.2-1.8-3.4-1.9-5.9-.5-6.9-4.4-7-9.3-.1-6.2-.5-12.3-1.7-18.4-.9-4.5-4.8-7.7-8.3-7.2-1.2.2-2.5.6-2.8 1.8-.4 1.4.9 1.5 1.9 1.6 4.6.6 6.4 3.4 6.6 7.9.2 3.3 1.3 6.6 1.2 9.9-.2 9.1 1.3 17.2 10.1 22.1.2.1.2.6.4 1.6-1.7-.8-3.1-.8-4.5.1-3.1 1.7-6.3 2-9.2-.8-.6-.6-1.4-1.1-2.2-.7-5 2.1-7.1-2-9.9-4.6-1.1-1-2-2.2-3.7-4.2.4 3.5.6 5.8.8 8.1.7 8.3 1.3 9.1 9.6 7.7 4.4-.7 8.4-1.1 11.3 2.7 2 2.5 4.4 2.7 7.2 2.8 2 .1 4 .5 5.9 1.1 3.4.9 6.8 2 2.5 6.8 2.3-.9 4.6 0 6-1.8 1.4-1.8 3.3-2.8 5.3-3.6 7.7-2.8 12.4-9.3 12.4-17.3 0-1.5.2-3 .3-4.4 1-10.6.2-21.2 1.3-31.9.5-4.1-1.5-8.6-1-13.2.7-6.4.4-6.4-5.9-6.6-3.4-.1-6.5-1.1-9.7-2.2-6.1-2.1-12.1-4.6-18.5-5.7-.8-.1-1.6-.5-2.3-.9-6.2-4.3-9.9-3.6-14.6 2.8 0 .1-.1.3-.1.4.2-.3.3-.3.4-.4zm-98.1-460.2c-2.5 7-4.1 14.1-3 21.5 1 6.7 4.1 10.5 9.4 11.2 12.4 1.5 23.9 5.6 34.8 11.6 2.3 1.3 4.9 2.1 7.3 3.1 1.1.5 2.5.6 3.1-.6.6-1.5-1-1.9-1.9-2.4-10.5-6.3-21.3-11.6-33.4-13.9-2.3-.4-4.8 0-7-1.8 9.9-10.1 20.6-18.9 31.6-28.4-11.9-4.1-23.1-6.1-34.6-6.6 11.4-1.5 22.2.8 32.9 4.4 1.3.4 2.7 1.7 4.2.6 6.3-4.5 12.6-9 19-13.6-2.2-2.3-4.7-2.7-7.4-2.8-16.2-.3-32.2 1.7-48 5.3-2.1.5-3.9 1.6-5.8 2.7-9.8 5.6-12.7 28.1-10.3 38.5.6-.6-.1-2 1.5-2.2.1 1.1.3 2.1.1 3.1-.8 5 1.7 7.5 6.1 9.3 3.7 1.5 7.6 2.2 11.3 3.3 17.3 5 34.3 10.7 49.9 19.9 4.7 2.8 9 3.7 14.4 1.6s11.3-2.5 17.2-2.5c1.7 0 3.3.2 3-2.5-.3-2.3-1.1-3.3-3.5-2.9-4.8.7-9.6 1.4-14.1 3-5.9 2.2-11.9 5.7-17.1-1.3-.1-.1-.3-.1-.5-.2-7.7-4.3-15.8-7.5-24.4-9.7-10.8-2.7-21.2-7.1-32-10-4.4-1.2-7.4-3.2-8.6-7.3-2.6-8.6-1.7-17.1 2-25.2.6-2.1.5-5.2 3.8-5.2zm14.7 61.7c11.4 5.8 22.4 11.5 33.5 16.9 2.7 1.3 4.7 2.9 6.5 5.2 8.2 10.5 14.1 22.5 21.7 33.4 2.7 3.8 6.9 7.8 6.2 13.6-.2 1.3 1.2 1.8 2.1 2.5 4.9 3.7 7.6 8.4 7.1 14.8-.3 3.7.9 7.2 2.8 10.4 11.8 19.6 19.6 40.8 26.6 62.5.5 1.6.8 1.7 2.3 2.3 3.2 1.3 6 3.3 5.9 7.7-.2 7.8 1.7 15.6 2.1 23.3.7 12.4 3.9 24.7 2 37.2-.3 2.2.8 4.6 1.3 6.8.3 1.2.6 3 2.3 2.6 1.9-.5.8-2.1.7-3.3-.1-1.3-2.2-2.8.1-3.8 2.7-1.1 1.9-2.8 1.6-4.9-3.2-19.4-7.1-38.6-7.6-58.3-.1-3.3-1-6-4.2-7.2-2.6-1-3.5-2.9-3.6-5.4-.2-3.9-1.7-7.5-3.3-10.9-8.2-17.3-14.8-35.5-25.5-51.6-1.1-1.7-1.9-3.8-1.6-5.7 1.7-9.9-5.2-17-8.5-25-1.8-4.5-6-8.5-8.8-13.1-6-9.9-11.9-20.1-19.8-28.7-1.3-1.4 1-3.5-2.1-4.9-11.6-5-22.9-10.6-34.3-16-1.5-.8-3-1.8-5.5-.4zM321.8 585.8h.6c.3-1.6.7-3.1 1-4.7.4-2.9-3.5-9.3 4.7-5.7 3.9-4 2.6.5 2.9 1.9.3 1.4 0 3 .2 4.4.7 4.6-.8 9.3.4 14 2.3-.9 1.9-2.3 1.9-3.9 0-5.2.3-10.3.1-15.5-.1-3.7 3.2-3.6 5-4.1 2.2-.6 1.8 2.2 1.9 3.7.3 5.3.4 10.6.6 16 .1 1.2-.2 2.9 1.9 2.7 1.5-.1 2.7-.9 2.5-2.5-.3-3.6.5-6.7 2.7-9.6.8-1.1 1.3-3.1-.4-4.5-1.4-1.1-1.6-2.5-.9-4 .9-1.8 2.3-.5 3.5-.4 5 .3 8.8-.8 11.4-3.5-19.9-.8-39.4.3-59.7 3.4 4.7 3.6 7 7.2 7.1 12.6 0 3.1 1.6 6.2 1.9 9.5.2 2 1.2 3.3 3.6 3 2.4-.3 3-1.4 3-3.6 0-4.5.2-9 .3-13.4.1-3.2 1.1-6.1 3.7-8.5.1 4.3.1 8.5.1 12.7zm303.6-39.7c-1.8.5-2.2 2.3-3.4 3.5-3 3-5.5 7.5-9.1 8.8-8.6 3-17.3 6-25.6 9.8-4.4 2-8.1 4.3-5.4 10.2.5 1.1.2 2.6.3 4 .5 10.6 1.1 21.3 1.7 31.9.1 1.1 0 2.9.6 3.2 5.8 3.2 8.7 9.1 13.7 14.9-2.3-6.5-4.8-11.1-9-14.8-1.2-1-2.5-2-2.4-4.1.7-12.7.1-25.4-1-38.1-.2-2.4.6-3.5 2.5-4.6 7.7-4.6 16.6-5.9 24.8-9 5.2-2 7.5-.4 9.2 4.9.9 2.9.9 6.2 2.7 9 7.3-8.5 7.4-19.1.4-29.6zm-256.2-230c-.9 2.6.5 5.5 0 8.5-.3 1.5.6 2.6 2.1 3 1.5.4 2.6-.5 3.1-1.9.4-1.2.6-2.6.8-3.9 1.2-7.5-.2-15.4 3.1-22.6 7.1-15.8 8.8-32.7 9.9-49.7.7-11 4.9-19.1 14.5-25 6.8-4.2 13.9-6.8 21.8-7.5 1.6-.1 2.7-.5 1.7-2.4-.4-.8.3-2.5-1.9-1.7-9.5 3.4-19.2 6.2-28 11.4-2.7 1.6-5 3.4-6.2 6.2-2.4 6.2-4.8 12.4-5.2 19.1-.4 6.3.5 12.9-1.2 18.8-2.6 9.2-6 18.2-10.1 26.9-3.1 6.6-4.7 13.4-4.4 20.8zm64.5-77.7c-3.7 2.7-7.7 2.9-11.6 3.8-1.9.4-3.6 1.1-2.1 3.5 6.9 10.9 12.4 22.7 22.4 31.4 2.4 2.1 5.5 3.5 6 7.3.2 1.2 1.7 2.4 3.5 2.3.4 0 1-.6 1-.8-.8-3.7 1.4-7.9-1.3-11.1-8.8-10.4-14.8-22.3-17.9-36.4zM264.9 401.3c-.7 1.1-1.6 1.9-1.6 2.8-.9 8.4-2.7 16.8-2.4 25.3.8 24.1-2.4 48.1-1.2 72.2.5 11.1-.9 22.3-1.4 33.4 0 1 .3 2.3-.8 2.7-5.7 2.3-6.3 7.6-7.4 12.5-.3 1.1-2 2.5-.1 3.3 1.4.6 2.4-.9 3-2.1.9-1.7 1-3.5.9-5.3-.2-3.9 2.5-5.9 5.6-6.7 2.5-.7 3.7-2 4-4.2.3-1.9.5-4 .3-6-2.4-23.8-1-47.6-.6-71.3.3-14.8-.5-29.6 1-44.4.4-3.9 1.6-7.8.7-12.2zm164 196.9c-1 3.6-3.1 7.7.8 9.6 9.5 4.7 16.4 12.3 23.7 19.4 1.4 1.4 2.5 3.3 4.7 3.4 13 .3 26.1.6 39.1 2.1-.4-4.4-2.8-5.7-6.5-5.6-8.8.1-17.6.1-26.4.1-1.9 0-3.8.4-5.5-1.4-6.2-6.5-13.3-11.9-21-16.4-4.3-2.6-9.6-4.2-8.9-11.2zm180.5 57c2.5-27.5 3-54.4 2.3-81.4 0-1.2 0-2.3-.1-3.5 0-.8-.4-1.2-1.2-1.3-.8 0-1.2.4-1.2 1.2-.1 1.1-.2 2.2-.3 3-5.4-.7-10.6-.9-15.7.6-1 .3-2.5.2-2.4 1.8.1 1.4.8 2.3 2.3 2.7 4.2 1.2 8.4 2 12.7 1 3.9-.9 4.2.7 4.1 3.9-.2 20.6-.9 41.2-2.5 61.8-.1 3.5-.5 6.8 2 10.2zM340.7 293.3c-11.4 14.9-25.2 27.2-41.6 38 6.8 2.1 6.7 1.9 11-1 13.9-9.3 24.2-21.5 30.6-37zM243 640.4c.4.2.8.3 1.2.5 4.2-6 8.5-12 12.6-18.2 2.3-3.5 5.8-6.5 5.4-11.3-.1-1.6 1.7-3.6.4-4.6-1.7-1.3-4.1.1-6.2.3-1.4.2-1.5 1.6-1.8 2.7-1 4.8-3.7 8.8-5.7 13.2-2.4 5.6-5.1 11.2-5.9 17.4zm129.5-404.9c.7 15.6-1.6 30.9-5.7 45.9-2.9 10.6-5.6 21.2-10.5 31.1-.6 1.1-1.6 2.6.8 3.5 2.4.9 1.7-1.2 2-1.9 3.7-9.4 6.5-19.2 9.1-29 2.9-10.9 5-21.9 6-33.1.3-5.5.5-11.1-1.7-16.5zm88.7-74.9c1.7-13.5 2-25.9-9.1-35.5-2.9 3 2.5 25.6 9.1 35.5zm55.6 640.3c-4.8-16.5-5.1-34.1-13.4-50.5 1.3 18.1 2.1 35.6 13.4 50.5zm-45.4-629.3c10.8-8 7.3-18.8 6.3-29-.4-3.6-6.6-9-9.3-9.2 4.3 12.5 6.2 25.1 3 38.2zm39.1 500.2c.6-7-3.3-8.9-8.7-9.5-4.8-.5-9.6-.6-14.4-.3-1.9.1-4.5.2-4.5 2.9 0 2.7 2.4 2.5 4.4 2.8 7.8 1 15.8.5 23.2 4.1zm-52.3-498.7c-1.5 7.2 3.5 14.6-1.5 21.7v-11.3c-2.3 4.1-5.4 25.3-4.8 30.4 8.1-12.9 10.1-26.5 6.3-40.8zm-101.4 53.7c-1.5 2.3-1.3 4.5.4 6.1 2.8 2.8 3 6.1 2.9 9.6 0 3.5.3 7 0 10.5-.3 3.2 1 5.3 4.2 7.7-1.2-11.9 5.2-24.6-7.5-33.9zm81.4-127.2c0 8.9 8 14.2 10.1 23.5 1.7-4.4.9-4.6 0-10.5-.9-6.7-1.8-12.4-10.1-13zm1.6 486.8c-.2-5-1.1-9.3-1.9-13.7-.4-2.4-1.7-3-3.8-2.7-2.2.3-1.8 1.9-1.5 3.5.9 5.2 1.7 10.4 2.6 15.6.2 1.4.3 3.1 2.5 2.9 2-.2 1.5-1.9 1.8-3 .3-1.1.3-2.1.3-2.6zM342.3 343c-.8 1.3-.4 2.2.1 2.7 4.1 4.5 8.3 8.8 12.5 13.3 1 1 1.8.5 2.5-.3 1.5-1.6.4-8.5-1.7-9.1-4.8-1.5-8.7-4.8-13.4-6.6zm-84.1 260.8c4.2.6 5.9-1.1 6.1-6 .2-5.3-.1-11.3 4.3-15.6-8.6 4.4-8.1 13.7-10.4 21.6zM500.3 679v-.2c-1.8.1-3.7.4-5.4.3-1.8-.2-2.5 1-2.8 2.2-.5 1.8 1 2.3 2.4 2.5 3.7.4 7.4 1.6 11.2 1.1 1.3-.1 3.3.6 3.3-1.8-.1-2-.3-4.1-3.1-4.1h-5.6zm-286 106.6l1.2.3c2.6-4.5 1.1-10.9 6.1-14.5-2.9-1.6-5.3-3.5-8.5-4.3.4 6.4.8 12.5 1.2 18.5zm252.5-598.4c-.5 8.7-1.3 17.3-4.7 26.2 7-6.8 8.9-17.6 4.7-26.2zM427.9 83.7c11.2-.1 14.3 9.7 21.1 14.3-3.7-9.4-12-13.8-20.7-17.9 1.9 1.5-1 2.7-.4 3.6zM452 573.9c.6 6.4 1.4 12.7 4.2 18.5 1.8-6.9-1-12.8-4.2-18.5zM282.1 414c1 2.6 1.6 4.7 3.1 6.5.7.9 1.1 2.3 2.4 2 1.6-.4 1.3-1.9 1.4-3.2.3-5.6.4-5.6-6.9-5.3zm-37-104.4c7.7.6 12.9-1.4 17.3-5.6.6-.5 1.4-1.1.7-2-.7-1-1.6-.9-2.5 0-3.9 3.9-9.1 5.6-15.5 7.6zm156.8 30.9c-3.9 1-6.8 2-9.3 3.9-1.2.9-2.3 2.1-1 3.7 1.2 1.5 2.6 1.2 3.9.3 2.7-1.8 4.6-4.2 6.4-7.9zm-187 424.8c3.7 2.3 7.6 3.4 10.3 6.8.5-1.8.9-3.2 1.3-4.6.1-.3.9-1-.4-.9-3.6.3-6.7-2.8-11.2-1.3zm189.9-154.7c2.3-4.9.8-8.5.9-12 .1-1.3-.9-1.6-2-1.6-1.3 0-1.8.6-1.5 1.9.8 3.4 1.6 7 2.6 11.7zM268.1 183.7c3.7 2.8 7.3 3.3 12.3 3.1-4.1-3.2-7.2-5.7-12.3-3.1zm4.4 495c-3 1.7-5.9 3.3-8.9 5-1.1.6-2.3 1.3-1.4 2.6.8 1.2 2.1.5 3.1-.1 2.9-1.9 5.5-4.1 7.2-7.5zm-8.2-441.3c-.5 2.6-.8 4.7-1.3 6.8-.4 1.7.6 1.9 1.9 2.1 1.7.3 2.1-.5 1.9-1.9-.3-2.3.5-5.1-2.5-7zM363.7 134c-1.8-2.2-2.9-3.8-2.9-6.2 0-1.3-1.4-.6-2.3-.2-2 1-3.6 3.1-2.7 4.7 1.5 2.5 4.5 2.2 7.9 1.7zm-10.3-15.1c-3 2.6-4.9 5.9-5.9 9.8 3.5-2.3 4.4-6.2 5.9-9.8zM209.1 272.4c-2.4 4.3-1.9 7.5-.1 11 1.8-3.4 1.8-3.4.1-11zm149.2-149.3c2.9-.8 5.1-1.4 7.4-2.1-2.9-1.1-6.4-5.2-7.4 2.1zm-91.7 456.4c3.8.1 4.7-1.6 5-3.6.2-1-1.2-1-1.9-1-3 .2-1.3 3-3.1 4.6zM224.8 607c-1.6-1.8-2.8-3.8-5.1-4.7-.1 0-1 1.2-.9 1.6 1.1 2.2 3.1 3.1 5.4 3.6 0 0 .2-.2.6-.5zm225.9-143.6c-.2-1.6-1-2.9-2.5-3.4-1.1-.4-2 .5-2.1 1.5-.2 2.1 1.5 2.7 3.1 3.2.9.3 1.4-.4 1.5-1.3zm25-263c-.6 1.1-1.6 2.4.1 3.2.1-.5.3-1 .3-1.4-.1-.6-.3-1.2-.4-1.8zm-9.2-64l.3-.9c0-.1-.2-.2-.3-.4-.2.2-.4.4-.4.5 0 .3.3.6.4.8zM283.7 278c-.1.1-.3.2-.3.3 0 .1.2.2.3.3.1-.1.3-.2.3-.3 0-.1-.2-.2-.3-.3zm-1.2-2.9c-.1.1-.3.2-.3.3 0 .1.1.2.2.3.1-.1.3-.2.3-.3 0-.1-.2-.2-.2-.3z" fill="#163748"/><path d="M483.7 151.4c-1.7-2.2-2.6-4.7-3.2-7.4-1-4.2-3.3-7.9-6.3-11.2-2.6-2.8-5.2-5.6-7.6-8.6-5-6.1-8.6-12.6-9.1-21-1.1-19.2-9.9-34-27.3-43-1.1-.6-2.1-1.5-3.2-2.2-.1-7.4-1.6-14.4-4.8-21-3.7-7.7-9.6-11.8-18.2-11.8-13.8-1.7-26.7 1.6-39.3 6.7-2.8 1.1-5.7 2.4-7.6 4.6-4.8 5.8-12.1 7-18 10.6l-.1-.1c0-1.8 1.3-3 2-4.5-1.4-.4-2.8-.7-4.1-1.3-.9-.4-1.9-2-1.3-2.3 4.8-2.1 2.6-8.5 7.6-11 4-1.9 4.4-6.8 2.5-11.1-3.6-8.4-1.6-16.5 1.2-24.5.8-2.2 2.1-4.1 2.2-6.6.1-1.8 1.2-3.3 3.1-3.3 2.3 0 1.4 2.1 1.8 3.4 1.7 5.4.4 11.1 1.4 17.6 2.9-4.6 4.9-8 4.6-12.7-.4-7.7 2.1-15 3.4-22.5.3-2 1.3-4.4 0-5.8-3.7-3.8-1.9-6.1 1.1-9 3.2-3.1 4-7.2 3.4-11.5 95.3 0 190.7 0 286-.1 3.4 0 4.1.7 4.1 4.1-.1 134.3-.1 268.7-.1 403-5.2-.1-10.5-.5-14.3 4.9-.3-2.5 1-4.5-.8-6.1-2.2-1.9-13.8 0-15.4 2.6-2.8 4.5-7.5 6.4-12.2 4-2.6-1.3-4.2-.8-6.3.5-1.9 1.2-4.8 3.3-6.2.7-3.2-6.3-8.6-4.5-13.4-4.5-3.4-.1-6.9-.8-10.1 1.6-2.4 1.9-3.2 3.1.3 4.3 1.9.7 2.2 2.1 2.4 3.9.2 3.1-.9 5.9-1.3 9.9-.8-1.9-.6-3.1-1.6-3.6-2.3-9-6.8-17.2-10-26-1.5-4 1.3-8.1-1.3-11.9-4.2-6-4.7-13-5.4-20-.9-9.2-3-18-5.8-26.9-3-9.7-7-18.5-12.4-26.8-2.8-4.3-7.1-7.5-9.9-11.6-5.3-7.8-12.7-7-20.1-6.9-16.4.2-32.4 3-47.9 8.1-5.4 1.8-17.9.4-25.7-3.1 3.8-2.2 7.7-3.8 10.5-7 3-3.4 5.8-6.9 6.8-11.4.4-1.9 1.2-3.3 2.7-4.6 6.1-5.3 10-11.8 10.6-20 .1-.7.3-1.3 1.1-1.4 5.2 10.6 2.2 26.6-6.3 34.2-1.1 1-2.6 1.6-3.1 3.1-.6.1-1.6-.2-1 1.1-3.4.5-6.7 1-10.8 1.7 10.1 4.6 17.7 2.1 21.9-6.6 4.9-5.2 5.4-11.8 5.6-18.4.2-8-1.8-15.7-5.5-22.9-1.2-2.4-1.1-3.6 1.2-5.1 4.9-3.2 8-7.8 9.9-13.3 4.8-6.9 2.2-13.5-.4-20zm-127-125.3c-1.4 0-1.8 1.1-1.7 2.3.2 1.5-.4 3.6 1.5 4.2 1.1.3 2.8-.3 2.6-2.1-.1-1.6.2-3.7-2.4-4.4z" fill="#f1fdfd"/><path d="M579.2 367.1c1 .6.8 1.7 1.6 3.6.4-4 1.6-6.8 1.3-9.9-.1-1.8-.4-3.2-2.4-3.9-3.4-1.2-2.6-2.5-.3-4.3 3.2-2.5 6.7-1.7 10.1-1.6 4.9.1 10.2-1.8 13.4 4.5 1.3 2.6 4.3.4 6.2-.7 2.1-1.3 3.7-1.9 6.3-.5 4.7 2.4 9.4.5 12.2-4 1.6-2.5 13.1-4.5 15.4-2.6 1.9 1.6.6 3.7.8 6.1 3.7-5.4 9-5 14.3-4.9v375c-3.6-.6-4-3.7-4.8-6.3-.7-2.4-2.1-4.5-2.8-6.8-1.8-6.2-7.7-9.7-10.1-15-3.5-7.7-11.9-11-15.1-18.6-.1-.2-.6-.2-.9-.3 9.2-32 16.7-64.2 15.8-97.7-.1-2.7.2-5.1-3.5-6.5-3-1.2-4.8-4.5-2.4-8.5 1.6 2 3.2 3.9 5.6 6.9.6-5.8.7-10.5-.2-15.1-1.9-9.9-4.1-19.8-6-29.7-.7-3.7-1.2-7.6-1.2-11.3.1-6.3-2.9-11.4-5.9-16.5-8.1-13.8-11.8-29.3-16.3-44.5-6.1-20.5-12.5-40.9-21.2-60.5-3.1-7-6.7-12.8-15.4-13.3-3-.2-6-1.6-10-2.7 4.8-.8 8.2 1.4 11.9 1 1.3-.1 3.1.4 2.7-1.7-1-3.6 1.4-6.5.9-9.7zm53.8 52.7c0-2.1.1-2.9 0-3.7-.2-2.2-1.2-4-3.6-4-2.5 0-2.5 2.2-2.5 4.1 0 1.8-.3 3.7 0 5.5.4 2.6-1.6 7.1 1.3 7.3 2.8.2 3.8-4.4 4.6-7.4.4-1 .3-2 .2-1.8zm1.8-64.9c-1.5 0-3-.1-4.4 0-1.1.1-2.7-.4-2.7 1.3 0 1.4 1.4 1.7 2.6 1.7 3.1.1 6.3 0 9.4 0 1.2 0 2.7-.3 2.7-1.6 0-2-1.9-1.3-3.1-1.4-1.5-.1-3 0-4.5 0z" fill="#bbe6fe"/><path d="M624.2 676.8c.3.1.8.1.9.3 3.3 7.6 11.6 10.9 15.1 18.6 2.4 5.3 8.3 8.8 10.1 15 .7 2.3 2.1 4.4 2.8 6.8.7 2.6 1.2 5.7 4.8 6.3v56c-2.1.2-2.3 2.2-3.2 3.4-3.6 4.6-4.3 10.7-8.6 14.9-3.2 3.1-5.6 7.1-8.5 10.5-6.7 7.9-14 15.2-22.1 21.5-14.7 11.4-31.2 19.4-50 21.6-2.7.3-5 2.2-8.2 1.3-4.1-1.2-8.4-1.6-12.7-2.1-2.5-.3-5-.5-6.8 2-2.8-9.7-4.8-19.5-6-29.5-.5-4.2-3.3-8-1.9-12.4 1.8-2.2.4-4.7.8-7 .2-1.6-.4-3.6 1.8-4.1 1.9-.4 4.2-.9 5.6.9 7.5 9.4 17.9 6.7 27.7 6.7.6 0 1.2-.9 1.9-1.5.1-.3.4-.8.4-.8-.7-.5-1.1.2-1.6.5-2.7-.4-5.9 1.2-8.2-1.6 1.5-2.5 3.3-4.9 4.2-7.9 1-3.2 4-3.7 6.7-4.4.9-.3 2.7.3 2.4 1-1.2 2.6 3.8 3.8 1.2 6.4-.8.8-1.8 1.5-1.8 2.9 1.9.8 3-.4 4.2-1.6 3.2-3.1 7.2-3 11.2-2.6.9.1 1.7.4 2 1.2.3 1-.6 1.5-1.2 1.9-3.9 2.3-7.5 5.6-13.2 3.2 2.2 2.8 4.1 3.3 6.5 2.1 3.6-1.8 7.3-2.9 11.4-1.1 1.4.6 3.4.6 4.8-.4 5-3.5 9.9-7 14.7-10.7 4.9-3.8 4.7-9.8 5.1-14.9.9-12.8.8-25.6 1.1-38.4.1-4.8-2.9-9.2-2.2-14.1.1-.6-.4-1.5-.2-2 6.2-12.5 1-27 7-39.5 1.4-2.3 1.4-5.5 2-8.4z" fill="#f1fdfd"/><path d="M538 853c1.7-2.5 4.3-2.3 6.8-2 4.3.5 8.6.9 12.7 2.1 3.2 1 5.4-1 8.2-1.3 18.8-2.2 35.3-10.2 50-21.6 8.1-6.3 15.4-13.6 22.1-21.5 2.9-3.5 5.2-7.4 8.5-10.5 4.3-4.2 5-10.4 8.6-14.9 1-1.3 1.2-3.2 3.2-3.4 0 39.5 0 79 .1 118.5 0 3-.6 3.6-3.6 3.6-36.2-.1-72.3-.1-108.5-.1-1.1-14.7-4.6-29.1-7.2-43.5-.5-1.8-.7-3.6-.9-5.4zM393 901.9c-3.7-24-7.1-48-11.4-71.9-2.7-14.6-1.3-29.2-2.2-43.8 8.6 39.7 20.7 78.3 36.6 115.7h-23zM291 901.9c-1.2-7-4.5-13.2-7.3-19.5-15.4-34.9-24.2-71.4-27.9-109.2-.7-7.6-1.6-15.2-1.4-22.9.1-3.7-1.8-6.7-3.1-9.8-2.9-6.9-3.6-13.9-3.2-21.2.2-3.4.3-6.6-3-8.9-.8-.5-1.5-1.4-.5-2.5.9-1 1.6-.4 2.5.1 3.4 2 4.8 4.8 4.7 8.7-.2 7-.2 14 2.7 20.6.8 1.8 1 3.8 2.9 5.1 1 .7 1.7 2 1.5 3.5-2.3 22.1 1.3 43.7 5.5 65.3 5.4 27.5 15.2 53.3 27.4 78.4 1.9 4 3.4 8.2 5.1 12.3H291z" fill="#bbe6fe"/><path d="M448.9 801.6c4.1 12.2 7.8 24.7 12.5 36.7 7.9 20.4 15.8 40.7 25.6 60.3.5 1 1.3 2 1.1 3.2h-6c-14.4-30.8-25.1-63-34.1-95.7-.4-1.6-1.1-3-1.7-4.5.8.1 1.7.1 2.6 0zM197.8 669.9l-3.6 24c-.1.8.1 1.9-.3 2.4-4.2 4.7-5.4 10.8-7.7 16.3-6.3 8.3-12.9 16.4-18.7 25-4.9 7.2-5.4 10.5-4.9 14.8 4.6-14.1 16.5-23.8 23.9-37.7.6 6.8 6 5.2 9.1 7.2-1.8 5.8 1.5 11.2 1.5 16.9-.1 6.2 1.3 12.1 2.4 18.1.4 2.5 2.1 2.1 3.7 1.4 1-.5 1.9-1.5 3.1-.3 1.7 1.7-1.2 2.4-.8 3.1 1.8 3.3 1.1 6.7.8 10.1-.4 4.3-.8 8.6-.9 12.9-.1 2.8-.8 3.7-4.1 1.4 1.5 3 2.9 5 3.7 7.3.6 1.7.8 3.6-.8 5.1-1.6 1.4-3.3 1-5 0-1.1-.7-2.3-1.2-3.4-1.9-1.3-.8-3.3-1-3.3-3.2 0-2.7 2.5-2 3.6-3 3.3-2.7 6.8-5.6 6.9-10.4.1-4.4-1.3-8.5-2.6-12.6.2 6.7.1 13.3-2.2 19.6-.7 1.9-.9 5.1-4.5 3.1l-.1-.2-.2.2c-1 .8-1.8.3-2.5-.5-1.5-2.1-1.8-4.4-1.9-7-.2-4-.5-8-3-11.8-1.5 2-1.4 5-5 4.3-1.8-.3-2.2 1.8-1.4 3.3 1 2.2 1.5 4.7 3.9 6.2 2.3 1.5 3.6 3.8 4.3 6.5.2.9 1.2 1.8.2 2.7-1 1-2.2.8-3.2.1-3.5-2.2-7.9-3.5-9.4-8.2-.6 5.6 2.7 8.5 7.1 10.7.5.2.9.5 1.4.6 6.3.4 12.2 4.3 18 4.3 7 .1 14.4 2.3 21.4-.7 2.3-1 4.5.8 6.7.2-.1.2-.1.4-.2.5-7.4 2.1-8.2 8.9-10.2 14.8-2 5.8-6.3 10.1-9.8 14.9-8.4 11.3-20 16.3-33.7 17.8-12.7 1.4-24-2.9-35-7.9-5.2-2.4-9.6-7-13.5-11.5-3.5-4-5.9-9.1-8.7-13.8-1.9-3.2-2.9-7-6.5-9.2-2.2-1.4-2.3-4.4-2.9-6.7-3.2-13.3-6.7-26.5-9.1-39.9-1-5.7-1.7-11.8 1.8-17.8 1.7-3 3.2-7.2 2.8-11.3-1.3-11.9 5.5-20.8 11.1-30.2.3-.4.8-.7.9-1.2 4-10.9 14.2-15.6 22.1-22.8 4.2-3.8 9.8-3.2 14.6-5.5 11.5-5.7 23.3-3.5 34.6.9 3.9 1.4 6.4-.8 9.5-1.4zM250.1 157.6c-11.9 1.6-16.8-2.3-12.6-15.9 4-13.1 13.8-21.6 25-28.7 4.2-2.7 8.7-4.8 13.5-6.1 2.2-.6 4.5-1 5.9-3.1v.1c1.8.1 3-.8 4.1-2.1l-.1.1c.6-.1 1.1-.3 1.1-1 .5-.6 1.1-1.3 1.6-1.9 11-6.2 19.4-15 26-25.8 2.9-4.8 5.8-9.7 10.6-12.9 3.2 1.7.3 3.9.9 6.1 3.3-2.9 4.5-6.6 3.5-11.1.7-.4 1.5-.7 2.2-1.1 1.5 3.6 4 7.2-.7 10.3-.2.2-.3 1-.1 1.3 3 4.5 1.3 9.3.6 14-.3 2.3.3 3.2 2.4 2.9 5.3-.7 10.5 2 15.8.6 2.5-.6 3.4.7 2.4 3.1-.7 1.8-1.3 3.7-3 5-1.8 1.3-.6 2.2.3 3.2-2.5 1.1-2.8 3.8-4.1 5.7-1.8-1-3.4.8-5.1.6.1-.7.3-1.5.4-2.2 1.3-.5 1.2-1.4.5-2.3-.2-.3-.9-.4-1.3-.3-1.3.4-1.1 1.4-.6 2.4-.9 1.3-1.8 2.6-2.8 3.9-2.3-.1-3.8.5-2.7 3.2-.8 1.6-1.6 3.1-2.3 4.7-.4 0-.7 0-1.1.1.1-.7.3-1.3.4-2-1.3-4-3.1-7.9-5.1-11.6-1-1.8-2.6-2.3-4.1-1.2-3.5 2.6-5 7.7-10.2 8.2-.1 0-.1.9-.2 1.4-.4 3.7-3 5-5.5 2-2.4-2.9-2.9-.7-4.2.5-1.4 1.4-1.6 3.2-2.4 4.9-2.6 5.8-9.1 7.1-13.2 11.2-.4.4-1.6.1-2.4.1-1.4 0-2.6.3-3.9 1.5.9.9 1.9 1.8 2.8 2.6-1 1.6-2.4 2.6-4.1 3.2-2-2.6-4.3-.3-6.4-.3-.6-.3.9-3.1-1.3-1.3-1.2 1-1.9 2.6-1.7 4.4-4.2 6.8-6.9 13.9-4.3 22-1.7 1-4.4-.7-5.6 1.8-1.4 3-3.3 1.7-5.2.7-5.1-21.3 9.8-32.2 23.3-44.9-6.2 1.7-12.1 1.8-16.3 6.5l.1-.1c-2.9.1-4.9 1.5-6.1 4.1l.1-.1c-3.5 1.2-5.4 4.1-7.1 7.1l.1-.1c-2.3 1.4-3 3.6-3.1 6.1l.1-.1c-1.4.7-1.2 1.4-.1 2.2 0 2-.3 4 0 5.9.3 2.2.6 4.8 3.9 4.7-1.6 3 .7 5.2 1.5 7.7l-.1.1zm26.8-36.8c-1.2.1-1.7.7-1.7 1.9 0 .1.5.3.7.2.8-.4 1.1-1.1 1-2.1.3-.2.6-.4.9-.7l-.3-.3c-.3.3-.4.7-.6 1zm-2.4 4.5c.7-1 .4-1.5-.1-1.5-.4 0-.8.5-1 .9-.1.3 0 .8.1 1.2l1-.6zm5.2-7.3c-.1-.3-.3-.6-.4-.8-.4.3-.8.5-1.1.9-.3.4-.2 1 .4.9.5-.2.8-.7 1.1-1zm-6.8 9.2c-.1-.1-.2-.2-.4-.3-.1.2-.3.4-.3.7 0 .1.2.2.3.3.1-.2.2-.4.4-.7zM235.2 268.1c-4.8.9-9.2.9-13.7-2.2-12.9-9.1-27-11.3-41.9-5.2-.3-.6-.6-1.1-.8-1.7 5-4.3 11.1-5.2 17.3-4.6 5.2.5 10.2 2.2 15.4 3.1 2.9.5 5.5-1.3 8.8-1.8-2.1-2.2-4.4-.5-6.6-1.4 1.7-1.9 3.2-3.5 4.7-5.3 1.6-1.9 3-.5 4.4.2 3.5 1.5 6.8 4.5 11 1.9 1-3.1 3.1-5.4 5.2-7.8 1.8-2 2.5-.2 3.7.2 1.4.5 1.6.8 1.3 2.7-.8 4.2-2.4 7.3-6.2 9.7-2.7 1.8.7 1.5 1.4 2.1.6.2-2.1 1.9.7 1.3 1.7-.4 3.3-1 5-1.4.3.7.5 1.4.8 2.1-2.2 3-5.2 4.8-8.4 6.2-.6.2-1.2.3-1.8.5-1.7-2.6-1.7-2.6-6.5-.1 2.2.1 4.1.3 6.1.4-.1.4 0 .8.1 1.1zm2-7.2c-.2-.5-.3-.7-.5-.9-.5.3-1 .7-1.6 1-.9.5.2.2.1.3.7-.1 1.3-.2 2-.4z" fill="#f1fdfd"/><path d="M160.9 260.8c2 .5 2.4-1.4 3.1-2.4 4.7-6.8 11.4-7.5 20.4-6.4-7 2.6-11.4 6.3-15 11.1-3.9 5.1-6.1 10.6-4.1 17.1.7 2.4 2.1 4.5 4.8 5.3-.5 2.4-5.3 3.4-7.9 1.7-3.7-2.5-6.3-8.2-4.6-12.2 1.7-3.9 2.8-7.8 2.3-12 1.8.1 1.2-1.2 1-2.2z" fill="#f1fdfd"/><path d="M331.9 54.2c-.7.4-1.5.7-2.2 1.1-1.9 1.4-3.3 3.1-4.4 5-4.8 3.2-7.7 8.2-10.6 12.9-6.6 10.7-15 19.6-26 25.8-4.6.4-9.1.3-13.4 2.5-4.2 2.1-8.8 2.2-14.1-1 3.7-.4 6.3 1.4 9.2.1-1.9-1.9-5.1-2.9-4.5-7.4 3 7 8.2 5.9 13.2 5.1 13.2-2.1 22.3-10.4 29.2-20.9 7.7-11.7 16.1-22.3 28.7-28.9.7-.2 1.4-.4 2.1-.5-1.4 3.2-5.8 3-7.2 6.2zM199 193.9c-3.7 3.3-7.3 6.8-9.7 11.3-5.1 9.9-1.5 16.5 10.3 18.2-4.5 3.5-8.2 1.1-12.1-.4-4.1-1.6-6.2-4.7-6.1-8.8.2-10.1 4.4-18.2 13.4-23.4l.3.2c-1.4 1.7-2.6 3.5-2.1 5.8-1.2.2-2 .9-2.9 2.4 1.8-.4 2.5-1.2 3-2.2 1-2.9 3.1-3.9 5.9-3.1zm-11 8c.5-.5 1-1.1 1.6-1.6-.2-.1-.5-.4-.6-.4-.9.3-1.1 1-1 1.8-.7 0-.9.5-.9 1.1-3.6 4.5-4.6 9.4-2.7 14.8-1.6-5.4 1.6-9.9 2.8-14.7.6.1.8-.4.8-1z" fill="#163748"/><path d="M174.5 418.5c-10.1-2-17.6-6.3-23.6-13.3-1.2-1.4-.8-2.8.1-4.1 1.2-1.7 3.1-1.7 4.5-1.1 8.2 3.6 15.2 8.6 19 18.5zM223.8 133.9c-1.2-12.4 4.1-18.3 18.3-20.8 1 1.2-1.6 1.6-.7 2.9-1.6 2.7-5.7 2.1-6.9 5.3-2.9.2-3.7 2.5-4.6 4.6l.1-.1c-1.1.8-1 1.9-1 3.1v-.1c-1.3 1.2-.9 2.6-.2 3.9-.4 5.7-3.4.2-5 1.2zM86.5 335.1c-1.8-.4-3.5-.7-5.3-1-1.7-.3-3.8.3-4.1-2.4-.3-2.7 1-4.6 3.3-5.5 2.3-.9 4.8-2 7.2-1 1.8.7 5.6-.4 5 3.2-.6 2.9-.7 7.4-6.1 6.7zM177.9 44.3c-4 .6-7.3-1-10.8-1.7-1.7-.4-2.2-1.9-1.9-3.5.4-2 1.8-1.8 3.4-1.5 4.5.5 6.3 4.3 9.3 6.7zM203.5 261c3.6-.1 6.6 1.4 10.4 3.6-3.5.8-5.2 2.8-7.1 4.7-.6-1.7-1.9-2.6-3.3-3.3-3.8-1.7-2.5-3.4 0-5zM101.5 381.2c-.8-2.3-.7-4.3-.3-6.2.3-1.4.8-3.2 2.8-2.7 2 .6 2.1 2.4 1.5 4.1-.6 1.9-1.7 3.5-4 4.8zM25.6 472.4c-2.1-.2-2.3-1.9-2.5-3.5-.2-1.8.6-2.8 2.5-2.9 1.8 0 3.3.2 3.3 2.6 0 2.2-1.3 3.1-3.3 3.8zM191.8 488.7c-2.1-.3-2.8-1.6-2.6-3.2.2-1.8 1.3-3.1 3.1-3.3 1.9-.2 2.6 1.2 2.6 2.8-.1 2.1-1.5 3.2-3.1 3.7zM64.3 124.1c2.3.7 2.2 2.8 2.6 4.4.3 1.5.2 3.2-2 3.2-1.8 0-2.8-1.1-2.7-2.8.1-1.8.4-3.6 2.1-4.8zM-18.1 65.9c-.1 1.2-.4 2.5-1.9 2.5s-2.6-1.1-2.5-2.5c0-1.4 1.1-2.5 2.6-2.5 1.4 0 1.7 1.3 1.8 2.5z" fill="#f1fdfd"/><path d="M230 125.9c.9-2.2 1.7-4.4 4.6-4.6-1.6 1.5-3.1 3.1-4.6 4.6zM286 101.9c-1.1 1.3-2.3 2.1-4.1 2.1 1-1.5 2.5-2 4.1-2.1zM161 260.8c.1 1 .7 2.3-1.3 2.1.5-.7.9-1.4 1.3-2.1zM228.9 132.8c-.7-1.3-1.1-2.6.2-3.9-.6 1.2-.5 2.5-.2 3.9zM229 128.9c0-1.1-.1-2.3 1-3.1-.3 1.1-.7 2.1-1 3.1zM203 268.9c-.5-.2-.9-.3-1.4-.5.2-.1.4-.4.6-.4.6 0 .9.3.8.9z" fill="#163748"/><path d="M339.1 47.9c-.7.2-1.4.4-2.1.5.2-1 .9-1.5 1.9-1.6l.1.1c.1.4 0 .7.1 1z" fill="#f1fdfd"/><path d="M287.1 100.9c0 .7-.5.9-1.1 1 0-.7.5-.9 1.1-1zM194.8 190.7c.1-.7.5-.9 1.2-.9.1.2.3.3.4.5-.4.2-.8.4-1.3.7l-.3-.3z" fill="#163748"/><path d="M515.7 670.2c-5.2-20.6-13.4-40.1-24.8-57.9-5.5-8.6-8.4-17.7-11.2-27.3-3.2-11.2-8.4-21.7-14.1-31.9-2.7-4.9-2.8-11-7.7-14.8-.5-.4-.5-1.3.2-2.1 3.3-4 3.2-7.5-.1-11.6-.9-1.1-2.2-1.7-1.7-3.7 2.6-10.6 2.6-21.7 5.8-32.2 1.8-6.1 3.5-12.3 6.5-18 9.9-18.5 22.3-35.4 32-54 3.4-6.5 6.3-13.2 8.2-21.7 2.7 7.2 5 13.3 7.3 19.4 7.4 19.7 19.6 36.6 31.4 53.7 2.7 4 5.3 8.1 8.3 11.9 4.7 6.1 7.2 12.8 6.1 20.4-.6 4 .5 7.1 3.3 9.9 3.1 3 3.7 6.1.4 9.5-2.8 2.9-2.4 6.6-1.6 9.9 2.6 11.5 5 23 5.5 34.8.1 2.8.6 5.8 5.1 7.1-10.3 4.2-8.8 11.8-7.7 20 2.3 17 2.4 34.2 2.7 51.3-2.1.7-1.8 2.3-1.5 3.9.5-.3 1-.5 1.5-.8.5 6.5.5 13.1.1 19.6-2.2-4.8.5-10.3-1.7-15.2-1.8.9-2.3 3.4-4.1 3.1-5.4-.9-10.7 1.1-16.1-.6-4.5-1.5-9.4-.2-14.1-.6-3-.3-6 1.5-8.4 4.4-2.6 3-5.3 5.9-7.4 9.4-.1-.6-.1-1.2-.2-1.9l-.6.3c.3.5.6 1 .8 1.6.1 1.8.2 3.6.3 6.2-1.1-2.4-1.3-2.5-2.5-2.1zM530 508.9c.1.1.2.1.3.2-.1-.1-.2-.1-.3-.2-.9-3.1-2.9-5.5-5.2-7.6-1.7-1.6-3.2-1.5-4.7.1-1.7 1.8-1 3.4.7 4.6 2.7 2.1 5.7 3.2 9.2 2.9zm-22.4 103.3c-3.3-1.5-5.6-5.8-10.9-3.7 3.8 1.3 6.7 3 8.5 6.2-4.4 1.1-7.3-2.2-11-3-.3-.8.4-1.9-.6-2.6-.1-.1-.6.1-.7.2-.6 1.1-.3 2.1.5 3 3 4 7.5 4.5 11.9 5.3 1.3.2 3.1-.4 3.6 1 1.2 3 3.5 2.5 5.8 2.4 1.4 0 3-.2 4.2 1.1-1 1.7-4 1-4.5 4 3.3.2 6-.8 7.8-3.3 1.4-1.9-1.3-2.4-2.2-3.5 1.6-1.5 4.3-1.2 5.9-3.4-4.9-.5-8.8 2.8-13.5 1.9 1.4-2.4 5.7-1.1 5.5-4.4-.2-2.2-2.5-3.5-4.7-3.8-2-.4-4.5-1.2-5 2.2-.3.2-.5.3-.6.4zM488.8 554c1.9-4.2.9-6.2-3.6-7.1-.2 1.5 2 2.2 1.3 3.9-2.3-.1-4.1-1.3-5.9-2.5-1.4-.9-3.2-1.9-2.9-3.7.3-2 2.5-2.1 4-2.3 7.3-1.1 14.2 0 19.8 5.4 1.3-1.9.1-3-.9-4.1-4.4-4.8-18.6-6.6-24-3.1-3.2 2.1-3.5 4.8-1 7.5 3.5 3.9 8.2 5.5 13.3 5.8-2 2.4-4.7 2.9-7.1 2.7.4 3.4 3.3 5.1 3.8 8.2 0 .1-.2.3-.2.4-.3 1.6.2 1.8 1.5.9 1.8-1.2 3.6.2 4.4 1.1 1.3 1.4-.5 2.4-1.6 3.2-.2.2-.5.7-.4.8 2.1 3.6 2.2 7.8 3.1 11.7.6 2.8 6.4 2.1 5.1 6.7.3.1.7.3.9.2 6.8-2.9 14.4-3.4 21.6-6.7-3.9-1.2-7-.2-9.9.7-4.3 1.3-7.5.4-8.9-3.6-1-2.6-2.7-3.5-4.8-4.6-3.4-1.8-4.1-4.4-1.3-7.2 2.1-2.1.8-2.7-1-3.3-1.1-.4-2.2-.7-3.3-1.2-1.8-.9-3.8-1.9-3.8-4.2-.1-2.3 2.1-2.8 3.6-3.7.5-.3 1.4-.3 1.1-1.5-1.1 0-2-.2-2.9-.4zm18.5 39c-1.7 2.5-5.1 4.1-3.2 7.1 1.6 2.7 4.7 2 7.3 1.8 3.9-.2 7.7-1.1 12.3-3.2h-17c3.7-5.6 9.8-6.5 15.3-10.1-5.2-1.4-9.4.4-13.5.6-3.6.2-7.2.9-10.7 1.7-1.3.3-3.2 1.1-2.7 3 .6 2.4 2.4.8 3.6.6 2.6-.5 5.2-1.8 8.6-1.5zm15.8 30.2c0 5.7-4.4 4.6-7 6-1.1.6-2.9.8-2.3 2.6.5 1.5 1.8.7 3 .6 2.5-.2 5.2-2 7.5-.8 1.5.8 1.9 1.8 1.8-.6-.1-2.1 1.6-2.2 2.9-2.8 1.5-.8 3.6-.7 4.5-2.8-3.4-1.4-7.4 3.2-10.4-2.2zm20.9-92.1c-.1-1.8 0-3.9-2.6-3.9-1.6 0-3 1.2-2.8 2.8.2 1.8.3 4.4 2.9 4.6 2.1.2 2.4-1.7 2.5-3.5z" fill="#bbe6fe"/><path d="M368.8 88.3c1.8-3 3.4-6.1 5.4-8.9 4.2-5.5 8.7-6.6 15.2-4.6 3.4 1.1 6.6-1 10.3-.5 3.4.4 6 .2 7.7 4.8.2-4.6 2.7-3.4 4.1-2.3 5.8 4.5 12.8 7.3 15.3 15.9 2 7.3 7.3 13.7 9.1 21.7-8.1-3.2-15.8-.7-23.5.7-2.6.5-5.2 1.6-7.8 1.8-4.2.2-5.4 2.3-4.6 6.1v-.1c-1.1-.5-1 .7-1.5 1-1 2.8 1.2 1.7 2.3 1.9l.2.2c1.6 1 3.2 2 4.9 3 .2 1.6.5 2.8 2.2 1 1.5-1.6 2.4-4 5.2-4.6.2 1.7.6 3.2.6 4.8-.1 3.3 2.3 4.1 4.5 3.6 4-1 8.6.4 12.2-2.6 1.9-1.6 2.9-2.9.5-5.1-2.5-2.3-5.8-2.9-8.4-4.9-.4-1.8-1.3-1.5-2.3-.5-1.3 1.1-2.8 1.1-4.4.8l-1.5-2.4c5.6-2.4 11.5-3.1 17.5-3.3 3.5-.1 5 1.5 5.6 4.9 2.2 12.3 1.3 24.6.7 36.8-.1 2-.6 4-.6 6 0 19-9.5 32.6-24.2 43.5-14.3 10.6-24.1 11.1-39.2 1.9-7.6-4.6-14.6-9.9-21.6-15.3-3.4-2.6-6.2-5.9-6.7-10.5 2.6-1.6 5.6.5 9-1.6-6.6-.4-6.4-5.4-7.7-9.4-.3-1.1-.8-2.4-1.6-3-3-2-1-3 .7-3.8 2.2-1.1 4-2.3 3.4-5.2l.3-.3c1.6-.1 4 1.2 4.4-1.3.2-1.5-1.1-3.4-3.5-2.5l-.2-.2c-.1-2 1.3-4.9-2.7-4.8 1.8-4.1 3.5-8.2 5.3-12.3.6-1.4 1.4-1.8 3-1.8 4 0 7.9-.6 11.9-.8 3.6-.1 7.8-.6 9.1-3.6 1.3-3-2.9-4.8-4.8-7.1 1.2-1.3 2.7.5 4.2-.5-.6-.8-1.2-1.6-2-2.6 4.3-.6 9.2 1.1 12.3-3.4-1.8-1.7-3.8-1.5-5.7-1.3-6.5.6-12.8-1.9-19.3-1.1-3.3.4-3.6-2.2-2.3-4.3 3.2-4.9 3.9-10.9 6.8-15.9 1.1-1.9.9-3.8.4-5.8.6-.6 2.1-.6 1.8-2.2zm14.4 90.3c-.9.7-1.8 1.3-2.6 2.1-1.6 1.4-5.8.8-4.6 3.7 1 2.6 3.8-1.1 6-.4 1 3.7 5 2.6 7.1 4.5-.7.8-3.2 1.1-.9 2.7 3.1 2.2 8.7 1.5 12-1.3 3.6-2.5 7.1-5 10.7-7.5.8-.3 3.6.9 1.4-1.6-1.1-1.3-3.2-1.6-4-3.4-2.5-5.5-4.7-6.7-10.2-5.8-1.3.2-2.7.3-4 .2-6.3-.6-8 .4-10.9 6.8zm20-21.4c-.3-.8.4-2.5-1.1-2.2-1.9.3-3.5 1.7-4 3.7-.2 1 .2 2.3 1.3 2.2 2.2-.3 3.7-1.5 3.8-3.7zm-49.9-3.7c-.2-.1-.4-.1-.5-.2 0 .1.1.2.1.3.1 0 .2-.1.4-.1zM515.7 670.2c1.2-.3 1.3-.2 2.6 2-.1-2.7-.2-4.5-.3-6.2 2.1-3.4 4.8-6.3 7.4-9.4 2.4-2.8 5.4-4.6 8.4-4.4 4.7.4 9.6-.8 14.1.6 5.4 1.8 10.8-.3 16.1.6 1.8.3 2.3-2.1 4.1-3.1 2.2 5-.5 10.4 1.7 15.2-.1 3.6-.2 7.1-.2 10.7-.8.7-.9 1.4-.1 2.1-.1 3.3-.2 6.6-.2 9.9-.5 1.7-.5 3.3.1 5 0 1 .1 1.9.1 2.9-.5.7-.8 1.3.2 1.9.3 1.5 1.1 3-.8 4.3-.9.6-1.7 3-1.3 3.9 2.4 4.7-1 6.2-4.1 7.9-5.6 3.1-11.8 4.3-18 5.3-4.3.7-7.4 2.3-9.1 6.8-1.7 4.4-3.6 8.9-6.9 12.4-3.2 3.3-4.7 8.6-10.4 9-2.8-9.8-3.4-19.8-3.4-30 5.2-15.7 3.2-31.6 0-47.4z" fill="#f1fdfd"/><path d="M368.8 88.3c.3 1.5-1.2 1.6-1.9 2.3-2.7 1.9-2.7 5.2-3.9 7.8-2.6 5.7-5.1 11.5-7.5 17.1-1 0-1.3-.6-1.1-1 2.5-3.5 2.5-7.6-.4-9.9-3.6-2.8-2.1-7-4.3-10-.9-1-2-1.9-.3-3.2 1.7-1.2 2.2-3.1 3-5 1-2.4 0-3.8-2.4-3.1-5.4 1.4-10.5-1.3-15.8-.6-2.2.3-2.7-.6-2.4-2.9.7-4.7 2.4-9.5-.6-14-.2-.3-.1-1.1.1-1.3 4.7-3.2 2.2-6.8.7-10.3 1.4-3.3 5.8-3 7.2-6.3h-.1c.7 0 1.4.3 2 .1 9.1-3.9 18.1-7.9 27.2-11.9.7 0 2-.1 1.8-.7-.4-1.1-1.5-.5-2.2 0-2.4.5-4.7.9-7.4 1.5 1.8-2.5 4.1-3.1 6.5-3.6 1.8 1.2 3.8.3 5.7.8.1.6.3 1.1.4 1.7-.3.2-.6.5-.9.7l.3.3c.3-.2.6-.4.9-.7 2.5-.8 5-1.6 7.5-2.2 8-2.1 15.2-.9 21.3 5.1-10.1.8-20.1-1.7-30.4-.5-5.8.7-9 5.8-14.7 5.5 2.8 1.5 3 3.9.1 6-2.2 1.6-3.1 3.6-4 5.8 1.9 1.3 2.7-.5 3.8-1.3 5.5-4.4 11.5-7.8 17.5-11.3 7.2-4.2 14.1-3.1 20.9-.1 3.9 1.7 7.3 4.5 11 6.8 1.1.7 1.8 1.5 1.5 2.8-.4 1.8-1.9.7-2.9.9-1.6.3-2.9-.6-4.3-1.1-8.5-3.4-17.6-.9-22.7 6.6-4.1 6-7.4 12.6-8.9 19.8-.1.3-.3.6-.4.9.3-.2.6-.3.9-.5.6-.1 1.1-.2 1.7-.3l.1.2c.3 3.4-3.7 5.3-3.2 8.8l-.1.1.1-.1c.1 0 .3.2.6.3zm34.1-37.5c-.3.1-.5.2-.8.3.1.1.2.3.3.4.2-.2.4-.4.5-.7.3-.1.5-.2.7-.4-.1-.1-.2-.2-.4-.3 0 .3-.1.5-.3.7zm-9.4-3c3.1 2.2 5.1 2.9 7.8 2.4-1.7-3.2-4.1-2.6-7.8-2.4z" fill="#bbe6fe"/><path d="M465.9 257.8c-3.3-.1-3.2 3.1-4 4.9-3.6 8.1-4.5 16.6-2 25.2 1.2 4.1 4.2 6.1 8.6 7.3 10.8 2.9 21.2 7.2 32 10 8.6 2.2 16.7 5.3 24.4 9.7.1.1.4.1.5.2 5.2 7 11.2 3.5 17.1 1.3 4.6-1.7 9.3-2.3 14.1-3 2.4-.3 3.2.6 3.5 2.9.3 2.7-1.2 2.5-3 2.5-5.9 0-11.8.4-17.2 2.5-5.4 2.1-9.6 1.2-14.4-1.6-15.6-9.2-32.6-15-49.9-19.9-3.8-1.1-7.6-1.8-11.3-3.3-4.4-1.8-6.9-4.3-6.1-9.3.1-.9-.1-1.9-.1-3.1-1.5.3-.9 1.7-1.5 2.2-2.4-10.4.5-32.9 10.3-38.5 1.9-1.1 3.7-2.2 5.8-2.7 15.8-3.6 31.8-5.6 48-5.3 2.7.1 5.2.5 7.4 2.8-6.3 4.6-12.6 9.1-19 13.6-1.6 1.1-2.9-.2-4.2-.6-10.7-3.6-21.5-5.9-32.9-4.4 11.5.6 22.7 2.5 34.6 6.6-11.1 9.5-21.8 18.3-31.6 28.4 2.2 1.9 4.7 1.4 7 1.8 12.1 2.3 23 7.6 33.4 13.9.9.5 2.5 1 1.9 2.4-.5 1.3-1.9 1.1-3.1.6-2.5-1-5-1.9-7.3-3.1-10.9-6-22.4-10-34.8-11.6-5.3-.7-8.5-4.4-9.4-11.2-.9-7.1.8-14.2 3.2-21.2.3-.1.5-.3.7-.5-.1-.1-.4-.2-.4-.2-.1.3-.2.5-.3.7zM563.9 717.8c4.7-6.4 8.3-7 14.6-2.8.7.5 1.5.8 2.3.9 6.4 1.2 12.4 3.7 18.5 5.7 3.2 1.1 6.3 2.1 9.7 2.2 6.3.1 6.6.1 5.9 6.6-.5 4.6 1.4 9 1 13.2-1.2 10.6-.4 21.3-1.3 31.9-.1 1.5-.3 3-.3 4.4-.1 8-4.7 14.5-12.4 17.3-2 .7-3.9 1.8-5.3 3.6s-3.7.9-6 1.8c4.3-4.8.9-5.9-2.5-6.8-1.9-.5-3.9-1-5.9-1.1-2.8-.1-5.2-.2-7.2-2.8-2.9-3.8-6.9-3.4-11.3-2.7-8.2 1.4-8.9.6-9.6-7.7-.2-2.3-.5-4.6-.8-8.1 1.7 2 2.6 3.2 3.7 4.2 2.8 2.6 4.9 6.7 9.9 4.6.8-.3 1.6.1 2.2.7 2.8 2.8 6.1 2.5 9.2.8 1.5-.8 2.8-.8 4.5-.1-.3-1-.3-1.5-.4-1.6-8.8-4.9-10.3-13-10.1-22.1.1-3.3-1.1-6.6-1.2-9.9-.2-4.4-2-7.2-6.6-7.9-1-.1-2.3-.3-1.9-1.6.3-1.2 1.6-1.6 2.8-1.8 3.5-.5 7.4 2.6 8.3 7.2 1.2 6 1.6 12.2 1.7 18.4.1 4.9 1.1 8.8 7 9.3 1.2.1 2.5 1 3.4 1.9 2.1 2 3.7 1.5 6.5.6 9.9-3.2 9-12.8 12.4-19.7 1.2-2.4-2.2-4.9-4-5.5-6.6-2.1-11.3-7.3-17.5-9.9-1.6-.7-2.9-2.5-2.7-3.8.2-1.9 2.6-1.9 4.2-2 2.5-.1 5 .3 7.5.2 1.1 0 2.9 1 3.2-.9.3-1.3-.5-2.5-2.1-3-.8-.2-1.4-.8-2.1-1.2 1.9-3.5 5-2.5 7.6-2.1 3.4.5 6.8 1.7 10.1 2.7 1.3.4 3 2.2 3.8.2.8-1.9-1.2-2.8-2.8-3.4-4.7-1.7-9.7-2.2-14.5-3.3-7.4-1.6-15-1.3-22.2-4.3-2.6-1.1-6.1-1.2-9-2.3h-.3z" fill="#f1fdfd"/><path d="M340.5 100.9c1.8.2 3.3-1.5 5.1-.6-1.8 5.7-5.6 10.4-8.6 15.4-.5.9-2 1.8-.9 3 1.1 1.3 2.3 0 2.8-.8 1.8-2.6 4.3-.9 6.8-1.5-2.8 2.4-2.1 4.8-1.3 7.8.8 2.9-2.1 5.4-2.7 8.3-1.5 1-2.6 2.2-2.4 4.2-.1.4-.3 1-.1 1.1.7.6 1-.1 1.2-.6 1.4-.7 2.1-1.9 2.3-3.4.8-.4 1-2.1 2.2-1.4 1.2.7.5 1.7-.1 2.5-1.1 1.6-2.2 3.3-3.4 4.9-3 4-3.1 4-2.2 10.3 4-3.1 3.4-8.7 6.8-11.9.7-.7 1.1-1.7 1.7-2.4.9-1.2 2.1-.8 3.1-.2.9.5 1.3 1.4.9 2.5-3.1 7.3-6.6 14.5-11 21.2-.6 1-1.5.3-2.2.3-.3-.5-.7-1.2-1.2-.4-.6.7.2 1 .7 1.2.1 1.6.1 1.7-1.6 1.9-1.8.2-2 1.9-2.3 2.9-3 9.5-9.1 17-15.6 24.2-11.6 13-26.3 21.7-41.9 28.8-2.7 1.2-6.6 2-10.4-.1 7.4.3 13.3-2.7 19.1-5.7 16.5-8.7 31.1-19.8 41.9-35.3 2.6-3.7 4.8-7-1.1-9.8-.5-.2-2.2-.8-1.4-2.1.5-.8 1.4-1.5 2.3-1.7 1.1-.2 1.7.8 1.9 1.9.2 1.4-.1 3.4 2.1 3.2 2-.2 1-2.6 1.7-3.5 2.8-3.4 3.5-7.4 4.5-11.4 1.1-4.3.1-6.4-3.2-6.9.1-2 2.9-2.7 2.2-5.8-10 9.4-19.7 18.5-33.3 20.8.2 2.7 2.7 1.4 3.5 3-15 6-30.6 7.6-46.5 5.9-6.9-.7-14.1-1.6-20.1-5.8-3.2-2.2-6.1-4.5-6-9.9 3.4 3.9 6.8 6.3 11.4 6.3 1.2 2.7 3.9 2.7 6.1 3.3 7.1 2 14.5 2.4 21.7 1 18.5-3.6 36.3-8.7 46.5-26.8.7-.1.9-.5.9-1.1.3-.4.7-.7 1-1.1.8-.2 1.2-.7 1.3-1.5 1-.5 1.7-1.2 1.8-2.4.6-.3 1.2-.7.7-1.5-.6-.8-1-.2-1.3.4-1.1.4-1.9 1.2-2 2.4-.9.4-1.5 1.1-1.7 2.1l-.2.2c-.7 0-1 .5-1.1 1.1-1.4 1.2-2.8 2.3-4.1 3.5-4.7 4.7-10.1 8.4-16.2 11.2-1.2.6-2.9 2.2-3.4-.8 1.7.4 2.6-.1 2-2 1.5 1.4 1.8.3 2-1 2.7 0 4.1-1.6 5-4 .9.3 1.3.1 1-1 1 .4 1.4.1 1-1 2 0 3.4-.6 3-3 .4.1.7.8 1 .1.1-.3 0-.7-.1-1.1.4 0 .8.2 1.1 0 .7-.3-.1-.7-.1-1 .4.1.6.7 1.1.1.5-.5-.1-.8-.1-1.1.4.1.6.7 1.1.1.5-.5-.1-.8-.1-1.1.4.1.6.7 1.1.1.5-.5-.1-.8-.1-1.1 1.7 1.2 2.2-.6 2.9-1.3 2.8-2.8 5.3-5.9 8.3-8.6 3.5-3.1 6.1-7 9.6-10.2 2.7-3.1 4.1-8.7 5.6-13.3zm-11.8 22.8c-1 .3-1.1 1-1 1.8-.9.1-1.1.8-1.2 1.5-1.1.9-2.7 1.9-1.2 3.2.8.7 1.7-.9 1.9-2.1.9-.2 1.1-.9 1.3-1.7.8-.5 1.3-1.2 1.3-2.2.6-.1.8-.4.7-1 .4-.7.7-1.4 1.1-2.1.4-.4 1.1-1 .3-1.4-.8-.5-.9.4-1 .9-.9.3-1.2.9-1 1.8-.9.2-1.2.6-1.2 1.3zm8.1 17.8c.9-.3 1.4-.9 1.3-1.8 0-.3-.3-.9-1-.6-.8.4-1.3.9-1.3 1.8 0 .2.4 1 1 .6zm-4.3-23.6c-.1.1-.3.2-.3.3.1.2.2.4.3.7.1-.1.3-.2.3-.3 0-.3-.2-.5-.3-.7z" fill="#bbe6fe"/><path d="M250.1 157.6l.2-.3c1.1.7 2.2 1.2 3.6 1.1 1.9.9 3.8 2.3 5.2-.7 1.2-2.6 3.8-.8 5.6-1.8 4.8-2.1 2.9-6.4 3.3-10 2.6-1.2 3.4-3.5 4-6 1.4-.1 2-.6 1-2v-.1c2.1 1.5 2.1-1.2 3.3-1.6 1-.4 1.6-2.1 2.9-1.4 5.9 3 8.2-2.2 11.6-4.9 1-.8.4-1.4-.7-2.4-3-2.7-5 .7-7.5.5-.9-.9-1.8-1.7-2.8-2.6 1.3-1.2 2.5-1.5 3.9-1.5.8 0 2 .3 2.4-.1 4.1-4.1 10.6-5.4 13.2-11.2.7-1.7 1-3.5 2.4-4.9 1.3-1.2 1.7-3.4 4.2-.5 2.5 3 5.1 1.7 5.5-2 .1-.5.1-1.4.2-1.4 5.2-.5 6.7-5.6 10.2-8.2 1.6-1.2 3.1-.7 4.1 1.2 2.1 3.7 3.8 7.6 5.1 11.6-7.4 6.3-14.8 12.6-22.2 18.8 1.1 1.5 2.5.4 3.1.9.5 2.1-1.8 2.1-2.2 3.3 1.5.8 3 1.6 4.4 2.4-.9-.2-1.3.1-1 1-.9-.3-1.1.2-1 1-.9-.2-1.2.1-1 1-.9-.2-1.2.1-1 1-.8-.2-1.4-.1-1 1-1.9.1-3.4.5-3 3-.4-.1-.6-.7-1.1-.1-.5.5.1.7.1 1.1-.4-.1-.6-.7-1.1-.1-.5.5.1.7.1 1.1-2.8-.1-4.8.8-5 4-1.3-.9-2-.7-2 1-1.4-.1-2.6.1-2 2-2.9-.2-4.5 1.8-6.2 3.6-.4.3-.8.5-1.1.8-.9.1-1.7.3-2 1.3-2 .4-3.7 1.4-5.1 2.9-3.5 1.1-7 2.5-10.6 3.3-8.5 2-16.7-.5-24.9-1.9 1.2-1.5 4.8.5 4.9-3.2z" fill="#bbe6fe"/><path d="M357.2 284.7c.8 5.5-.6 10.5-3.2 15.3-4.2 7.9-9.4 15.3-12.1 23.9-.2.6-.8 1-1.3 1.5-.9 1-2.9 2.1-1.3 3.5 1.2 1.1 2-1.1 3.1-1.6l3.9 2.1c0 .6 0 1.2-.1 1.7-.7.6-1.4 1.2-.8 2.3 1.2 2.8 3.1 1.4 4.8.9 5.8-1.8 11.3-5.7 17.6-4 5.1 1.3 8.7-.8 12.9-3.1 23.9-12.8 49-22.8 75.1-30.5 1.6-.5 3-.9 4.7 0 15 8.2 31.4 13.3 47 20.3 8.8 3.9 17 8.6 24.2 15.1 3.5 3.2 4.5 6.6 1.5 10.6l.1-.1c-2.9-.7-3-3.8-4.5-5.6-6.8-8.2-15.3-13.6-25.2-17.1-10.3-3.6-21-6.5-30.9-11.2-11.7-5.6-22.5-4-33.8.3-20.2 7.6-40.9 14-59.5 25.2-3.8 2.3-6.9 1.9-10.7 2-9.5.3-18.9 1-28.4 1.4-4.8.2-3.4 4-3.9 6.6-.8-.1-1.6-.2-2.5-.3-.6-2-1.9-1.3-3.1-.9-3.9 1.3-7.7 2.6-11.6 3.8-1.1.3-2.2 1.9-3.3 0l.1.2c.8-.6 2-.8 2.1-2.1l-.1.1c.7 0 1.8.3 1.1-1.1l-.1.1c6.2-.6 10.8-4.8 11.4-10.5.3-3.3 1.1-5.7 5.2-3.8 1.1.5 2.4.8 2.5-1.1.9-8.8 6.6-15.4 10-23.1 2.4-5.5 6.8-10.3 5.6-17.1-.2-1.2 1.2-2.7 1.8-4 .4.5 1 .4 1.7.3zM452.8 645.8c3.2-2.4-.4-3-1.3-3.7-7.2-5.6-14.7-11-21.9-16.5-5-3.8-9.8-7.8-15.3-11.3 1.6 1.9 3.2 3.8 5.3 6.5-9.1-4.8-11.5-12.1-11.6-20.6 0-1.4-.5-3.2 2-3 1.6.1 3.5-.3 3.8 2.2 0 .2.1.3.1.5-.8 9.4 5.6 14.2 12 19 10 7.5 19.9 15 29.9 22.5.8.6 1.7 1.4 2.6 1.3 9.7-.5 19.5-1.2 29.2-2.2-8-1.4-16-.6-24.1-.5.5-2.4 2.1-1.8 3.3-2 7.1-1.5 14.2-2 21.4-1.1 13.4 1.6 14.8 5.2 18.1 18.9-13.5-2.8-27.1-3.3-40.7-2.7-.7 0-1.5-.3-2 0-5.6 3.1-8-1.3-11-4.5.1-1 .2-1.9.2-2.8z" fill="#f1fdfd"/><path d="M480.6 319.5c2.5-1.4 4-.3 5.7.4 11.4 5.4 22.7 11 34.3 16 3.1 1.3.8 3.4 2.1 4.9 7.9 8.6 13.8 18.8 19.8 28.7 2.8 4.6 7 8.7 8.8 13.1 3.3 8.1 10.2 15.2 8.5 25-.3 1.9.4 4 1.6 5.7 10.7 16.1 17.3 34.2 25.5 51.6 1.6 3.5 3.1 7 3.3 10.9.1 2.5 1 4.4 3.6 5.4 3.2 1.3 4.1 3.9 4.2 7.2.5 19.7 4.4 39 7.6 58.3.3 2.1 1.1 3.8-1.6 4.9-2.3 1-.2 2.5-.1 3.8.1 1.2 1.2 2.9-.7 3.3-1.7.4-2-1.4-2.3-2.6-.5-2.3-1.6-4.6-1.3-6.8 1.9-12.6-1.3-24.8-2-37.2-.4-7.8-2.3-15.5-2.1-23.3.1-4.4-2.7-6.4-5.9-7.7-1.5-.6-1.8-.8-2.3-2.3-6.9-21.6-14.8-42.9-26.6-62.5-2-3.3-3.1-6.7-2.8-10.4.6-6.4-2.2-11.1-7.1-14.8-.9-.7-2.3-1.2-2.1-2.5.7-5.8-3.6-9.8-6.2-13.6-7.6-10.9-13.5-22.9-21.7-33.4-1.8-2.3-3.8-3.9-6.5-5.2-11.3-5.5-22.3-11.2-33.7-16.9z" fill="#bbe6fe"/><path d="M286.8 312.7c-3.1 3.1-4.4 1.4-4.6-1.9-.2-4.2.3-7.4 5.4-9.4 13.6-5.2 27.1-10.9 39-19.9-1.9 4.7-5.2 8.4-8.7 11.6-8.6 7.9-15.7 17.4-19.6 27.8-2.8 7.4-8.2 11.3-12.6 16.4-7.5 8.7-12.8 18.1-13.9 29.7-.2 1.7.1 4.3-2.6 4-2.6-.3-1.6-2.9-1.5-4.5.7-13.2 6.6-24 16.7-32.2 6.5-5.3 11.3-11.5 14.5-19.1 1.5-3.5 3.5-6.8 5.2-10.1.9-.3 1.1-1 1.1-1.9.2-.4.5-.7.7-1.1l-.3-.3c-.2.3-.5.7-.7 1-1 .1-1.2.9-1.4 1.6-.8 1-1.8 2-2.5 3.1-3.5 5.9-5.5 13.6-10.6 17.2-5.6 4.1-8.8 9.6-13.5 14.1-1.1 1.1-1.9 3.3-3.9 1.6-1.9-1.6.1-2.9.8-4.3 2.2-4.1 5.5-7.3 8.6-10.7 1.9-2.2 4.5-3.9 2.5-7.6-1-1.9 1.9-2.8 2.5-4.5.9-.4 1.6-.9 2-1.9 2.2-1.4 4.4-2.9 5.7-5.5-2.6.9-4.7 2.4-6.2 4.7-1.1.4-1.8 1.1-2.1 2.1zm20.2-12.8l-.8.8c.1.1.2.2.4.3.2-.4.3-.7.4-1.1.3 0 .5-.1.7-.1-.1-.2-.2-.4-.3-.5-.1.1-.3.4-.4.6zm-8.6 4.2c-1 .3-2.4-.1-2.5 1.6 1.4.5 2-.7 2.5-1.6z" fill="#f1fdfd"/><path d="M261 193.9c-2-1.4-3.2-3.6-3.4-5.7-.5-4.6-2.7-3.8-5.8-2.8-10.1 3.3-19.6 7.7-28.2 14.1-.6-1.6 1.4-2 1.2-3.2-7.4 2-19.2 24.7-16.2 37.5-3-8.8-.3-17 3.2-24.9 7.3-16.8 21.1-27.4 36.4-36.3.8-.5 1.9-.7 2.8-.5 11.4 2.2 22.9 2.9 35.9.8-8 4.3-15.6 5.6-22.6 8.3-1.4.6-3.6.2-3.9 2.7-.4 2.6.7 4.2 2.8 5.6 6.3 4.1 13 5.9 20.3 2.9.6-.2 1.2-.3 1.8-.4.1 0 .3.2.4.2-.1 5.1-3.6 6.4-7.7 6.9-5.8.8-11.6 1.1-15.9-4.2 5.3 3.2 10.9 4.3 16.9 2.1-5.8-1.1-11.6-2-17-4.4-.9-.4-1 .7-1 1.3z" fill="#bbe6fe"/><path d="M435.4 563.7c-10 1.7-20 2.2-30.1 2.2-2.6 0-3.7-.7-3.3-3.3.1-.8 0-1.7-.1-2.5-.5-11.5-.3-12.2 11.4-13.6 7-.9 14.2-.6 21.3 1-6.5 1.1-12.9 2.2-19.4 3.4-1 .2-2 .4-2.9.7-.9.3-2.8-.2-2.2 1.7.3 1.1 1.7.9 2.6.5 4.8-2.2 10-1.6 15-2.2 2.2.3 4.4 1 6.5-.5.4-.1.8-.1 1.3-.2h.2c4.9-1.1 9.9-1.1 14.8-.1l.2.1c3.4-.3 6.3 3.3 10.2 1.2 1.2-.6 1.7 2.4 2.5 3.8.4.7.5 1.6.8 2.3.6 1.8 3 3.6 1.5 5.2-1.4 1.6-4 .2-6 0-4.3-.8-8.7-.5-13-.2-3.6.9-7.2.9-10.9.6l-.1-.3-.3.2zm16.7-4.3c-13.3-2-26.9-1.5-40.5-1.4-1.2 0-2.9-.7-3.3 1.2-.3 1.7-1.1 3.8.1 5.3.9 1 2.4 0 3.7-.3 5.4-1.5 10.9-1.8 16.5-2.6 7.8-1 16 .6 23.5-2.2zM493.3 372.9c-1.7 2-3.5 4-5 6.1-7.2 10.5-18.5 14.8-29.5 19.3-12.4 5.1-25.3 8.7-38.1 12.1-.4-.8-.7-1.1-.6-1.4.6-8.3.6-8.3 9.1-10.4 19.5-4.7 37.7-12 53.1-25.2 2.6-.1 4.8-1.6 6.9-2.9 2.8-1.5 3.7-.2 4.1 2.4z" fill="#f1fdfd"/><path d="M515.8 717.8c-.1 10.1.6 20.2 3.4 30l-.2.3c-.7.3-.8.9-.9 1.6-.9 5.3 0 10.6-.3 15.8-.5 7 .4 13.8 1.4 20.6.2 1.1.4 2.7 1.2 3.2 4.1 2.4 3.9 6.6 4.8 10.4.3 1.3 0 3 2 3.7.7-1.9.1-3.7-.3-5.4-.4-2.3.6-2.9 2.5-2.9 4.7 2.6 10.6 1.9 14.8 5.7.4.7.8 1.3 1.3 2 3 3.8 7.4 4.5 12.2 1.9l.9-.3c2.3 2.8 5.4 1.2 8.2 1.6l1.2.3c-.6.5-1.2 1.5-1.9 1.5-9.7 0-20.2 2.7-27.7-6.7-1.4-1.8-3.7-1.3-5.6-.9-2.2.4-1.6 2.5-1.8 4.1-.4 2.3 1 4.9-.8 7-1.2-1.1-.3-3.4-2.5-4.2-2.2 2.3-.2 5.4-1.5 8.3-2.8-3-5.8-5.4-6.3-10-1.6-15-8.2-29.1-9.2-44.2-.4-6.1-.3-12.2-3.2-17.9-1.4-2.8 1.1-4.5 1.8-6.7 1.5-4.7 2.2-9.6 3.3-14.5.3 6 .5 11.9.8 17.8h1.4c2-7.4-.6-14.9 1-22.1zM239.1 258.1c-.7-.6-4.1-.3-1.4-2.1 3.7-2.5 5.3-5.5 6.2-9.7.4-1.9.1-2.3-1.3-2.7-1.2-.4-1.9-2.2-3.7-.2-2.2 2.4-4.2 4.7-5.2 7.8-5.3-2.7-11.7-3.8-14.2-10.4-.2-.6-.3-1.3-.5-1.9l.1-.1c1.4 0 1.8 1.2 2.6 2 2 1.7 3.2 6.1 7.3 2.4.7-.6 3 .8 4.6 1.2 1 .2 2.1.3 2.6-.8.5-1.3-.6-1.6-1.5-2.1-11.3-7.4-12.9-20.7-4-30.8 3.9-4.4 7.6-8.8 12.3-12.4 1.3-.9 2.3-2.5 4.7-2-1.7 2.1-3.4 4.1-4.9 6.1-7.7 10.4-7.6 22.1.6 32 4.1 4.9 4.9 9.9 1.6 15.5-.5.9-1 1.8-1.2 2.7-.1.7 0 1.9.5 2.3.9.8 1.9.1 2.5-.7 1.3-1.5 2.4-3 3.9-4.8-.9 4.2-1.9 7.9-5.2 10.6-.3-.7-.5-1.4-.8-2.1 0-1.3-.1-2.3-1.9-1.5-1.1.7-2.4 1.2-3.7 1.7z" fill="#bbe6fe"/><path d="M321.8 585.8v-12.7c-2.6 2.4-3.6 5.3-3.7 8.5-.1 4.5-.3 9-.3 13.4 0 2.2-.6 3.4-3 3.6-2.4.3-3.5-1-3.6-3-.3-3.3-1.8-6.5-1.9-9.5-.1-5.4-2.4-8.9-7.1-12.6 20.3-3.2 39.8-4.2 59.7-3.4-2.6 2.7-6.4 3.8-11.4 3.5-1.2-.1-2.7-1.4-3.5.4-.7 1.5-.4 2.9.9 4 1.7 1.4 1.3 3.4.4 4.5-2.3 2.9-3 6-2.7 9.6.1 1.6-1 2.4-2.5 2.5-2.1.2-1.9-1.5-1.9-2.7-.2-5.3-.3-10.6-.6-16-.1-1.5.3-4.3-1.9-3.7-1.8.5-5.1.4-5 4.1.1 5.2-.2 10.3-.1 15.5 0 1.5.4 3-1.9 3.9-1.1-4.7.3-9.4-.4-14-.2-1.5.1-3-.2-4.4-.3-1.4.9-5.9-2.9-1.9-8.3-3.6-4.3 2.8-4.7 5.7-.2 1.6-.7 3.1-1 4.7h-.7zM625.4 546.1c6.9 10.6 6.8 21.1-.4 29.6-1.8-2.8-1.8-6-2.7-9-1.7-5.3-4-6.8-9.2-4.9-8.2 3.1-17.1 4.4-24.8 9-1.9 1.1-2.7 2.2-2.5 4.6 1.1 12.7 1.7 25.4 1 38.1-.1 2.1 1.2 3 2.4 4.1 4.2 3.6 6.7 8.3 9 14.8-5-5.8-7.8-11.7-13.7-14.9-.6-.3-.6-2.1-.6-3.2-.6-10.6-1.1-21.3-1.7-31.9-.1-1.3.3-2.8-.3-4-2.7-5.9 1-8.2 5.4-10.2 8.3-3.8 16.9-6.8 25.6-9.8 3.6-1.3 6.1-5.8 9.1-8.8 1.2-1.2 1.7-3 3.4-3.5zM369.2 316.1c-.2-7.4 1.4-14.2 4.3-20.6 4.1-8.7 7.5-17.7 10.1-26.9 1.6-5.9.8-12.5 1.2-18.8.4-6.7 2.7-13 5.2-19.1 1.1-2.9 3.5-4.7 6.2-6.2 8.8-5.1 18.5-8 28-11.4 2.2-.8 1.5.9 1.9 1.7.9 1.9-.1 2.2-1.7 2.4-7.9.7-15 3.3-21.8 7.5-9.5 5.8-13.8 13.9-14.5 25-1.1 16.9-2.7 33.9-9.9 49.7-3.3 7.2-1.8 15.1-3.1 22.6-.2 1.3-.4 2.6-.8 3.9-.5 1.3-1.5 2.3-3.1 1.9-1.4-.4-2.3-1.5-2.1-3 .6-3.1-.8-6.1.1-8.7zM544.2 800.6c-4.2-3.8-10.1-3.1-14.8-5.7-2.7-3.5 2.2-2.9 2.9-5.3-8.3.6-10.3-5.5-10.9-11.3-.9-9.4-1.2-18.9-.1-28.3 2.1-1.8 4.3-3.6 6.4-5.5 1.3-1.1 2-3.7 4.2-2.7 2.1 1 2.6 3.6 2.1 5.7-1.2 4.7.2 9.1.5 13.7-2.5 5.9-4.8 11.9-6.1 18.2-1.3 6.1 1.1 8.1 7 6.2 5.7-1.8 9.4 1.4 8.9 7.5-.2 2.5-.1 5-.1 7.5zM534.8 346.1c6.1-.4 10.8-4.8 17-5.6 5.1-.6 9.8 0 14.7.8 2.5.4 2 3.3 2.7 5.5-7.3-.1-14 1.5-20.6 3.8-1.2.4-2.4 1.1-3.7 1.5-1.8.6-1.5 2-1 3.2.7 1.7 1.7 1.4 3.1.5 5-3.1 10.6-4.8 16.4-5.5 5.8-.6 7.4.5 9.3 6.6-6.6.7-13.3 1.1-19.5 3.6-1.9.8-4.2 1.4-4.4 3.5-.2 2.2 2.4 2.3 3.8 3.1 1.9 1.1 3.9 2.1 6.6 3.6-8.3.1-14.3-1.8-17.4-9.3-2.1-5.3-6.6-9.5-7-15.5.1.1 0 .2 0 .2z" fill="#f1fdfd"/><path d="M403.9 25.1c8.6 0 14.5 4 18.2 11.8 3.2 6.7 4.7 13.7 4.8 21-3 4.7-2.9 10-3.3 15.9 3.2-2.1 2.4-4.7 2.8-7 .2-1.1-.2-3 2.6-2 11.1 4 23.8 16.2 23.5 32.4-7.5-12-18.2-18.8-30.7-23.2-1.7-.6-1.6-1.1-1-2.8 3.6-10.6 2-21.1-1.4-31.5-.7-2.2-2.4-3.6-5-3-2.5-4.2-6.6-6.6-10.5-9.2.1-.8.1-1.6 0-2.4z" fill="#bbe6fe"/><path d="M433.7 238.4c3.1 14 9.1 26 17.9 36.6 2.7 3.2.5 7.4 1.3 11.1 0 .2-.6.7-1 .8-1.7.1-3.3-1.1-3.5-2.3-.5-3.8-3.6-5.3-6-7.3-10-8.7-15.5-20.6-22.4-31.4-1.5-2.4.2-3.1 2.1-3.5 3.9-1 7.9-1.2 11.6-4z" fill="#f1fdfd"/><path d="M287 276.9c2.7 4.6 8.3 7.2 13 6 1.4-.3 2.9-.5 4.4-.5 7-.2 7-.2 13.3-3.4-7.8 10.5-19 13.7-29.1 18.4-.4-.8-.7-1.6-1.2-2.7-1.8 3-4.2 5.2-7.3 6.7-2.1 1-3.4.4-4.7-1-2-2.2-2.3-11.6-.5-13.9.9-1.2 2-.7 3.2-.7h11.8c-2.6-2.8-2.6-2.8-12.9-2.3.7-3.6.8-4 3.8-2.9 2.3.9 4.2-1.7 6.5-.2.3.2 1.2-2.3-.3-3.5z" fill="#bbe6fe"/><path d="M574.7 596.7c1.9 11.3 2.6 22.8 3 34.2.1 3.3 1 4.1 4.3 3.6 9.8-1.6 9.9-1.5 9.8 8.5 0 9.4 2.1 18.7 1.7 28.1-.3 6.9-.2 13.9-.3 20.8 0 1.7.1 3.4-2 4-4.4-.2-8.8.1-12.9-2.2-.8-2.5 1.1-2.8 2.7-3.1 1.8-.3 3.7-.9 5.4-.7 4 .5 4.6-1.4 4.6-4.8.2-15.3-2.3-30.5-2.2-45.8 0-1.7-.6-2.4-2.4-2-1.3.3-2.7.6-4 .3-4.5-1-4.6 1.4-4.6 4.9.3 11.8.1 23.6-1.4 35.4-.5.1-.9.1-1.4.2-.4-4.2-.1-8.4.4-12.5.8-6 .5-12.1.2-18.2-.6-6-.6-11.9-.4-17.9l.3-.1-.3-.1c-.5-8.6-1-17.3-1.5-25.9v-.1c-.2-2-.4-4-.6-6.1.7-.1 1.1-.3 1.6-.5z" fill="#f1fdfd"/><path d="M264.9 401.3c.9 4.4-.3 8.3-.7 12.2-1.5 14.8-.8 29.6-1 44.4-.4 23.8-1.8 47.6.6 71.3.2 2 .1 4-.3 6-.4 2.2-1.5 3.6-4 4.2-3.1.8-5.8 2.8-5.6 6.7.1 1.9-.1 3.7-.9 5.3-.6 1.2-1.6 2.7-3 2.1-1.9-.8-.1-2.2.1-3.3 1.1-5 1.7-10.2 7.4-12.5 1-.4.7-1.7.8-2.7.5-11.1 2-22.3 1.4-33.4-1.2-24.1 2-48.1 1.2-72.2-.3-8.5 1.5-16.9 2.4-25.3 0-.9.9-1.7 1.6-2.8zM199.3 684.8c3.3-14.7 6.7-29.4 10.2-45 3 3 5.2 5.6 8.3 7.2 2.2 1.2 3.6 1.7 4.5-1.7 2.7-10.6 4.5-21.3 6.7-32 .3-1.5-.6-2.5-1.1-3.7-2.8-7.3-5.3-14.7-3.9-22.7l-.1.1c4.1-2.3.6 3 3.4 2.6 7.9-10.7 12.1-23.9 19.6-35.2-5 14.1-11.2 27.6-18.6 40.4-1.4 2.5-2.1 4.9-1 6.8 4.1 7 3.2 14.2 1.5 21.4-2.9 12.3-5.9 24.5-8.9 36.8-.3-.5-.5-.9-.8-1.4-.6-2.4 2.9-5.3-.3-7.1-3.2-1.8-5.8-4.1-8.9-6.9-2.4 14.2-5.7 27.7-9.1 41.1-.4-.1-1-.4-1.5-.7zM448.9 801.6h-2.6c-4.5-15.5-9-30.9-13.5-46.4-.9-3-1.9-6.1-4.4-8.2-2.3-2-1.9-3.5.1-5.7 7.3-7.7 11.6-17.2 14.8-27.2.6-.3.9-1.1.5-1.5-.6-.7-.8.3-1.2.6l-2.4 1.8.1-.1c.8-5.1 3.3-9.9 3.8-15.1.2-1.4 1.3-2.4 2.9-1.9 2 .6 2 2.4 1.9 4.1-1.1 11.3-4.5 21.9-10.2 31.7-2.3 3.9-3.4 8.7-7.3 10.1 4.2 20 13.1 38.2 17.5 57.8z" fill="#bbe6fe"/><path d="M428.9 598.2c-.7 7 4.6 8.6 8.9 11.2 7.7 4.5 14.8 10 21 16.4 1.7 1.8 3.6 1.4 5.5 1.4 8.8 0 17.6 0 26.4-.1 3.7 0 6.1 1.2 6.5 5.6-13-1.5-26.1-1.8-39.1-2.1-2.2-.1-3.3-2-4.7-3.4-7.4-7.1-14.3-14.7-23.7-19.4-3.9-1.9-1.8-6-.8-9.6zM609.4 655.2c-2.5-3.5-2.1-6.7-1.8-10 1.6-20.6 2.3-41.2 2.5-61.8 0-3.3-.3-4.8-4.1-3.9-4.2 1-8.5.2-12.7-1-1.6-.5-2.2-1.4-2.3-2.7-.1-1.6 1.3-1.5 2.4-1.8 5.1-1.5 10.3-1.3 15.7-.6.1-.8.2-1.9.3-3 .1-.8.5-1.2 1.2-1.2.8 0 1.2.5 1.2 1.3 0 1.2.1 2.3.1 3.5.5 26.8 0 53.8-2.5 81.2zM591.3 702.8c.6 1.1 1.2 2.3 2.2 4 1.5-5.2 3.6-4.5 7.6-2.8 4.9 2.1 8.9 5.1 13.3 7.8 1.4.9 2 1.9 1.4 3.2-.6 1.2-1.7.6-2.6.2-12.2-6.1-25.3-6-38.4-5.5-1.6.1-3.9 1.2-4-2 2.7-1.9 5-4.3 7.5-6.4 3.4-3.1 11.5-1.8 13 1.5z" fill="#f1fdfd"/><path d="M534.5 761.2c-.3-4.5-1.8-9-.5-13.7.6-2.1 0-4.7-2.1-5.7s-2.9 1.6-4.2 2.7c-2.1 1.8-4.3 3.6-6.4 5.5-1.4.1-2.2-.6-2.4-2l.2-.3c5.7-.4 7.2-5.7 10.4-9 3.4 1.9 3.3-1.8 4.8-3 1.6-1.2 1.7-4.6 4.5-3.9 2.3.6 3.6 3 4.2 5.2 1.2 4.3 1.7 8.7 1.6 13.2 0 .6 0 1.5-.4 1.9-3.2 3.1-6.5 6.1-9.7 9.1z" fill="#bbe6fe"/><path d="M404 27.5c3.9 2.6 8 5 10.5 9.2 2.6 3.3 4.3 6.9 3.6 12C405 36.1 391.5 25.8 372.5 34c-1.9-.6-3.9.4-5.7-.8 4.5-2.5 9.4-3.9 14.3-4.9 7.6-1.6 15.2-4.1 22.9-.8zM340.7 293.3c-6.4 15.6-16.7 27.8-30.6 37-4.3 2.9-4.2 3-11 1 16.4-10.8 30.2-23.1 41.6-38zM243 640.4c.7-6.2 3.4-11.8 5.9-17.4 2-4.4 4.6-8.4 5.7-13.2.2-1.1.4-2.6 1.8-2.7 2.1-.2 4.4-1.6 6.2-.3 1.3 1-.5 3.1-.4 4.6.3 4.9-3.2 7.8-5.4 11.3-4 6.2-8.4 12.1-12.6 18.2-.4-.2-.8-.4-1.2-.5zM219.2 658.5c.3.5.5.9.8 1.4-2 12.3-4 24.5-6.1 36.8-.3 2-6.4 5-8.2 4.2-1.6-.7-.8-2-.4-2.9.8-1.8.1-3.4-1.4-3.5-7-.7-6-5-4.5-9.5.5.3 1.1.6 1.6.8-.1 2.6.7 4.1 3.6 4.8 6.4 1.5 6.2 1.7 7.5-4.8 1.7-9.4 4.4-18.3 7.1-27.3z" fill="#f1fdfd"/><path d="M248 264.9c6.3-2.1 10-6.8 12.2-12.8 1-2.8 3-3.8 5.4-2.9 2.5.9.6 3.1.3 4.6-1.2 6.4-4.9 11.2-10 14.9-6 4.4-12.8 6.8-20.1 8 5.8-1.8 11.1-3.9 12.2-10.8l.1-.1c.3.8.9.9 1.4.3.3-.3.2-.8.4-1.2-.7.1-1.3 0-1.9 0zM195.6 722c-3.1-2.1-8.6-.5-9.1-7.2-7.4 13.9-19.3 23.5-23.9 37.7-.5-4.3 0-7.6 4.9-14.8 5.8-8.6 12.4-16.7 18.7-25 5.2 1.4 4.2-3.1 5.5-5.2 1.6 4.3 5.5 6.7 9.9 9.2-2.2 1.8-4.1 3.5-6 5.3z" fill="#bbe6fe"/><path d="M372.5 235.5c2.2 5.4 2.1 11 1.6 16.4-.9 11.2-3.1 22.2-6 33.1-2.6 9.8-5.4 19.5-9.1 29-.3.7.5 2.9-2 1.9-2.3-.9-1.3-2.3-.8-3.5 4.9-9.9 7.6-20.5 10.5-31.1 4.2-14.9 6.5-30.1 5.8-45.8zM461.2 160.6c-6.6-9.9-11.9-32.4-9.1-35.5 11.1 9.5 10.8 22 9.1 35.5z" fill="#f1fdfd"/><path d="M516.8 800.9c-11.3-14.9-12.1-32.3-13.4-50.5 8.4 16.3 8.6 34 13.4 50.5z" fill="#bbe6fe"/><path d="M471.4 171.6c3.2-13.1 1.3-25.7-3-38.1 2.7.2 8.9 5.6 9.3 9.2 1 10.1 4.5 20.9-6.3 28.9zM510.5 671.8c-7.4-3.6-15.4-3.1-23.1-4.1-2-.2-4.4-.1-4.4-2.8 0-2.7 2.6-2.8 4.5-2.9 4.8-.3 9.6-.3 14.4.3 5.3.6 9.1 2.5 8.6 9.5z" fill="#f1fdfd"/><path d="M349.9 160c.6 2.9-1.2 4.1-3.4 5.2-1.7.8-3.7 1.9-.7 3.8.8.6 1.3 1.9 1.6 3 1.3 4 1.1 9 7.7 9.4-3.3 2.1-6.4 0-9 1.6-4-4.4-6.4-9.9-6.9-15.4-.3-3.5 2.8-7.4 5.6-10.5 1.1 2 2.7 3.2 5.1 2.9zM182.5 795.7c-4.4-2.2-7.7-5.1-7.1-10.7 1.4 4.7 5.8 6 9.4 8.2 1 .6 2.2.9 3.2-.1.9-.9 0-1.8-.2-2.7-.7-2.7-2-5-4.3-6.5-2.4-1.5-2.8-4-3.9-6.2-.7-1.5-.4-3.7 1.4-3.3 3.6.7 3.4-2.3 5-4.3 2.5 3.8 2.8 7.9 3 11.8.1 2.6.5 4.9 1.9 7 1.6 7.7-4.6 5.8-8.4 6.8z" fill="#bbe6fe"/><path d="M459.9 120.7c2.9 3.9 4.8 8.2 6.3 13-2.2 0-1.6-2.6-4-2.7 5.3 14 8.6 27.9 3.4 42.4-1.6-1.4-1.4-2.9-1-4.5 3.5-15.1 1.7-29.4-7.6-42.2-1.5-2.1-.9-4-.3-6.1 1 .5 2.2-1.2 3.2.1z" fill="#f1fdfd"/><path d="M458.2 173.1c3.8 14.4 1.8 28-6.2 40.7-.7-5.1 2.5-26.3 4.8-30.4v11.3c4.9-7-.1-14.4 1.4-21.6zM591.3 702.8c-1.5-3.3-9.6-4.6-13-1.6-2.5 2.2-4.7 4.6-7.5 6.4-2.1-2.4-2.1-3.9.1-4.1 3.6-.4 3.2-2.6 3.3-4.9.3-6.8-1-13.8 1-20.5.5-.1.9-.1 1.4-.2-.2 4.2-.4 8.4-.5 12.6-.1 1.6-.5 3.5 2.2 3.2 4 2.3 8.5 2 12.9 2.2 2.3 2.3.7 4.6.1 6.9z" fill="#bbe6fe"/><path d="M356.8 226.8c12.8 9.3 6.3 21.9 7.5 33.9-3.2-2.3-4.4-4.5-4.2-7.7.3-3.5 0-7 0-10.5s-.1-6.9-2.9-9.6c-1.7-1.6-1.9-3.7-.4-6.1zM483.3 169.6c-.9 4.4-3.1 8-6.2 11.1-5.4 5.3-5.7 5.2-9.8-1.5 6.9-3.5 11.9-8.7 14.2-16.2 1-3.3-.3-6.6.8-9.8 1.8 5.4 2.1 10.9 1 16.4z" fill="#f1fdfd"/><path d="M401.9 218.2c-5.5 3-11.1 5.8-14.2 11.8-.4.7-.7 1.8-2.2 1.3-3.9-1.1-8.1.3-12.8-1.4 10.3-3.4 17.3-12.2 28.2-12.7.4.3.7.7 1 1z" fill="#bbe6fe"/><path d="M557.6 804.5c-4.7 2.5-9.1 1.8-12.2-1.9 2.6-2.1 5.1-4.1 6.4-7.4 1.3-3.3 5.1-4.5 7.9-2.5 3 2.2 0 4.4-.7 6.5-.5 1.7-3.6 2.8-1.4 5.3z" fill="#f1fdfd"/><path d="M438.2 99.6c8.3.6 9.2 6.4 10.2 13 .9 5.9 1.7 6.2 0 10.5-2.2-9.4-10.2-14.6-10.2-23.5z" fill="#bbe6fe"/><path d="M439.8 586.4c0 .5 0 1.5-.2 2.5-.3 1.1.2 2.8-1.8 3-2.2.2-2.3-1.4-2.5-2.9-.9-5.2-1.8-10.4-2.6-15.6-.3-1.5-.7-3.1 1.5-3.5 2.1-.3 3.4.3 3.8 2.7.7 4.5 1.6 8.8 1.8 13.8zM342.3 343c4.7 1.9 8.6 5.1 13.4 6.6 2.1.7 3.2 7.5 1.7 9.1-.7.8-1.5 1.3-2.5.3-4.2-4.4-8.4-8.8-12.5-13.3-.6-.5-.9-1.4-.1-2.7z" fill="#f1fdfd"/><path d="M200.8 188.5c8.7-5.8 18.8-8.1 28.5-11.3 3.6-1.2 7.2-3.2 12.3-3.1-12.4 9.8-27.3 10-40.4 15-.2-.3-.3-.4-.4-.6zM446 153.9c-3.4-8.3-.6-17.1-1.7-25.6 3.2 9 5.3 18.1 5.9 27.6 0 .7-.8 1.4-1.2 2.1v-.1c.1-.7.4-1.6-.9-.9v-.1c1-1.3.6-1.9-1-1.9v-.1c-.1-.4-.1-.8-.2-1.2-.3 0-.6.1-.9.2zM227.1 284.8c11.4 2.4 20.3-4.1 30-8.6.4 2.5-1.4 3.1-2.5 4-4.5 3.7-9.8 6-15.4 7.8-4.8 1.6-9 1.4-12.2-3.1l.1-.1z" fill="#bbe6fe"/><path d="M401.9 218.2c-.3-.3-.6-.6-.9-1 8.9-3.5 16.5-8.9 24.1-14.6 1.8 6.7 1.1 8.3-4.8 9.8-6.2 1.6-12.3 3.6-18.4 5.8z" fill="#f1fdfd"/><path d="M258.2 603.8c2.3-7.9 1.8-17.2 10.4-21.6-4.4 4.3-4 10.3-4.3 15.6-.2 4.9-1.9 6.6-6.1 6z" fill="#bbe6fe"/><path d="M316.1 346.9c-7.1-2.2-12.5-7.5-18.8-11.1-.9-.5-.7-1.3 0-2 .9-.9 1.7-.9 3-.4 6.9 2.3 12.5 7 18.6 10.5l.1-.1c-.7 0-1.5-.1-1.1 1.1l.1-.1c-1.5-.1-2.7.1-1.9 2.1zM500.3 679h5.5c2.9 0 3.1 2.1 3.1 4.1.1 2.4-2 1.7-3.3 1.8-3.8.4-7.5-.7-11.2-1.1-1.3-.1-2.8-.7-2.4-2.5.3-1.2 1-2.3 2.8-2.2 1.8.2 3.6-.2 5.4-.3.1.1.1.1.1.2zM335.8 361.4l.3 6.6c-.6 0-1.3 0-1.9.1-3.4-5.3-3.3-11.1-1.6-16.8.4-1.4.8-2.4-.8-3.1-.2-.5-.3-1-.5-1.5.5-.5.7-1.6 1.8-1.3.9 2.6 2.2-.3 3.3.3-.1.8-.1 1.6-.2 2.4-.1.8-.1 1.6-.2 2.4-.1 3.4-.1 6.8-.2 10.2-.1.2 0 .4 0 .7zM214.3 785.6c-.4-6-.8-12.1-1.2-18.4 3.2.8 5.7 2.7 8.5 4.3-5 3.6-3.5 9.9-6.1 14.5-.4-.2-.8-.3-1.2-.4z" fill="#f1fdfd"/><path d="M466.8 187.2c4.2 8.6 2.2 19.4-4.7 26.2 3.4-8.9 4.2-17.6 4.7-26.2zM449 157.9c-.9 3.3 1.4 5.9 2.6 8.3 2.6 5 2.5 9.8.9 14.9-2.2-8.4-2.5-17.4-8.1-24.7-1.1-1.4.7-1.8 1.5-2.5h.1c-.2.8-.2 1.4.9.9v.1c-.7 1.1-.4 1.8 1 1.9v.1c.1.4.1.8.2 1.2.3-.1.6-.1.9-.2zM427.9 83.7c-.6-.8 2.3-2.1.4-3.6 8.8 4.1 17 8.5 20.7 17.9-6.7-4.6-9.9-14.4-21.1-14.3zM266 270.9c-3.1 6.9-4.1 14.5-6.5 21.7-2.5-8.7-.1-15.9 6.4-21.8l.1.1zM405.9 128.9c-1.6-1-3.2-2-4.9-3 .1-.1.2-.2.4-.3l-.2-.2c-.1.1-.2.2-.3.4-1.1-.2-3.3.9-2.3-1.9.5-.3 1-.7 1.5-1v.1c4.7-1.9 9.6-3 14.5-3.9.5.8 1 1.6 1.4 2.4-1 1.3-2.5 1.6-4 1.5.1-.3.2-.6.2-1 .6-.2 1.1-.4 1.7-.6-.7-.8-1.4-.6-2.1 0-.6.3-1.3.5-1.9.8-4.4 1.7-4.3 1.6-2.2 5 .5 1-.7 1.5-1.8 1.7zM452.8 645.8c-.1.9-.2 1.8-.2 2.7-7.6-6.2-15.1-12.3-22.7-18.5.3-.2.4-.5.5-.8 7.5 5.5 15 11 22.4 16.6z" fill="#bbe6fe"/><path d="M452 573.9c3.2 5.7 6 11.6 4.2 18.5-2.8-5.8-3.7-12.1-4.2-18.5z" fill="#f1fdfd"/><path d="M342 262c-6.9 4.4-9.3 12-12.9 19.7-1.2-7.5 6-16.9 12.9-19.7zM355.2 262.4c-.5 9.6-5 17.4-11.2 24.5l-.1-.1c2.2-4.4 4.1-9 6.6-13.2 2.1-3.6 2.8-7.6 4.5-11.3-.1-.1.2.1.2.1zM483.3 169.6c1.1-5.6.8-11.1-1-16.5-.2-1.1.2-1.7 1.3-1.8 2.6 6.6 5.2 13.1.6 19.9-.2-.5-.6-1-.9-1.6zM282.1 414c7.2-.3 7.2-.3 6.9 5.3-.1 1.3.2 2.9-1.4 3.2-1.3.3-1.6-1.2-2.4-2-1.5-1.8-2.1-4-3.1-6.5zM357.2 284.7c-.6.2-1.3.3-1.7-.4 3.7-6.9 7.5-13.8 7-22.1 1.5 3.7.7 11.2-1.5 14.6-1.6 2.4-2.7 5.1-3.8 7.9zM245.1 309.6c6.4-2 11.6-3.7 15.6-7.6.9-.9 1.7-1 2.5 0 .7.9-.2 1.5-.7 2-4.6 4.1-9.8 6.2-17.4 5.6zM468.8 232.4c0-2.7 2.5-4.1 3.5-6.3 2.1-4.8 3.5-9.6 2.5-15-.4-2-1.4-4.3 1.8-5.6.9 7.3.5 14.3-2.6 21.1-.6 1.3-2.4 2.5-1.1 4.4-2.1-.9-2.2 2.1-3.9 2.1 0-.3-.1-.5-.2-.7zM401.9 340.5c-1.8 3.7-3.8 6.1-6.4 7.9-1.3.9-2.8 1.2-3.9-.3-1.3-1.6-.2-2.8 1-3.7 2.5-1.9 5.4-2.9 9.3-3.9zM574.7 596.7c-.4.2-.9.4-1.3.6l-2.1-17.1c2.4 5.2 2.9 10.9 3.4 16.5zM493.3 372.9c-.4-2.6-1.3-4-4.2-2.2-2.1 1.3-4.3 2.7-6.9 2.9 1.1-2.1 4.1-2.7 4.1-5.9 0-1.3 1.9-1.4 2.8-1.2 2.4.6 4.6 2 6 4.1.7 1.2-1.1 1.7-1.8 2.3zM346.3 329.4l-3.9-2.1c3-3.2 6.7-5.4 11-8-1.6 4.6-5.2 6.8-7.1 10.1zM273 283.9c.2 5.3-2.4 10.4-.5 15.8.2.7-.1 1.4-.9 1.4-1.2-.1-1.8-1-1.8-2 .3-5.2-.5-10.6 3.1-15.2h.1zM214.9 765.3c4.5-1.6 7.6 1.6 11.2 1.3 1.4-.1.5.6.4.9-.3 1.4-.8 2.8-1.3 4.6-2.7-3.4-6.6-4.5-10.3-6.8zM404.8 610.6c-1-4.8-1.8-8.3-2.6-11.8-.3-1.3.2-1.9 1.5-1.9 1.1 0 2 .3 2 1.6-.1 3.6 1.4 7.2-.9 12.1z" fill="#bbe6fe"/><path d="M453 226.8c-1.3 5.8-7.7 10.9-15 11.3 6.5-1.8 9.9-7.5 15-11.3z" fill="#f1fdfd"/><path d="M268.1 183.7c5.1-2.6 8.2-.1 12.3 3.1-4.9.2-8.5-.3-12.3-3.1zM272.5 678.7c-1.6 3.5-4.3 5.6-7.2 7.5-1 .6-2.3 1.3-3.1.1-.9-1.3.3-2 1.4-2.6 2.9-1.7 5.9-3.4 8.9-5zM264.3 237.4c3 1.9 2.2 4.7 2.5 7 .2 1.4-.2 2.2-1.9 1.9-1.3-.2-2.3-.5-1.9-2.1.5-2.1.8-4.2 1.3-6.8z" fill="#bbe6fe"/><path d="M355.2 262.4l-.2-.2c-.3-2.3-2.2-4.2-1.7-6.8.2-1 .5-2.6 1.3-2 1.7 1.2 3.2 2.9 4.3 4.7 1 1.7-1 1.9-2.1 2.6-.7.3-1.1 1.1-1.6 1.7z" fill="#f1fdfd"/><path d="M345.5 333.5c-.6-1.1.1-1.7.8-2.3 4.1-1.8 8.1-3.8 12.8-3.7-4.4 2.3-8.5 5.2-13.6 6zM331.3 346.7c.2.5.3 1 .5 1.5-2.9 3-3.1 7.5-6.6 10.6-.7-5.8 2.1-9.3 6.1-12.1z" fill="#bbe6fe"/><path d="M363.7 134c-3.5.5-6.5.8-7.9-1.7-.9-1.6.6-3.7 2.7-4.7.9-.4 2.4-1.1 2.3.2 0 2.4 1.1 4 2.9 6.2z" fill="#f1fdfd"/><path d="M353.4 118.9c-1.5 3.6-2.5 7.5-5.9 9.8 1-3.9 2.9-7.2 5.9-9.8zM269 268.9c7.1 5-1.7 5.6-2 9.4-1.5-3.7 2.5-5.5.9-8.3l.1-.1c.3.1.5.2.8.3.1-.5.1-.9.2-1.3z" fill="#bbe6fe"/><path d="M209.1 272.4c1.7 7.7 1.7 7.7-.1 11-1.8-3.5-2.3-6.8.1-11z" fill="#f1fdfd"/><path d="M348.2 150.9c3.9-.1 2.5 2.8 2.7 4.8-1.8 1.3-3.7 1.3-5.5 0 .7-1.7 1.2-3.5 2.8-4.8zM459.9 120.7c-1-1.4-2.2.4-3.2-.2-.1-.6-.4-1.2-.4-1.8 0-1.1.1-2.2.2-3.2 0 .1 0 .4.1.4 3.4.4 4.4 1.9 3.3 4.8zM358.3 123.1c1-7.4 4.6-3.2 7.4-2.1-2.3.7-4.5 1.3-7.4 2.1zM266.6 579.5c1.8-1.6.1-4.4 3.1-4.6.7 0 2.1 0 1.9 1-.3 2-1.2 3.7-5 3.6zM575.8 647.4c.3 6.1.6 12.1-.2 18.2-.4-6.1-.5-12.1.2-18.2z" fill="#bbe6fe"/><path d="M224.8 607c-.4.3-.5.5-.6.5-2.3-.5-4.3-1.4-5.4-3.6-.2-.3.8-1.6.9-1.6 2.2.9 3.5 2.9 5.1 4.7z" fill="#f1fdfd"/><path d="M195 190.9c.4-.2.8-.4 1.3-.7l2.4-.6c.2.1.3.3.4.4-2.1 1.3-1.1 2.6 0 3.9-2.9-.8-4.9.2-6.1 3l-.1-.1c-.5-2.4.7-4.2 2.1-5.9zM450.7 463.4c-.1.9-.6 1.7-1.6 1.4-1.6-.5-3.3-1.1-3.1-3.2.1-1 1.1-1.9 2.1-1.5 1.7.4 2.4 1.7 2.6 3.3z" fill="#bbe6fe"/><path d="M345.4 155.8c1.8 1.4 3.7 1.4 5.5 0l.2.2c-.7 1.2-1.2 2.3-.9 3.8l-.3.3c-2.4.2-4-1-5.1-2.9.2-.6.4-1 .6-1.4z" fill="#f1fdfd"/><path d="M446.5 563.1c4.4-.3 8.7-.6 13 .2-4.3.3-8.6.6-13-.2zM463 234.9c2.8 1.1 3.4-2.8 5.9-2.5l.3.6c-.9 2.3-3 3.2-4.9 4.4-1.7 1-2.3.1-2.2-1.5.5 0 1.6.3.9-1zM235.2 268.1c-.1-.3-.2-.6-.3-1 .1-.2.2-.3.4-.3.6-.2 1.2-.3 1.8-.5l3.9.6.1.1c-1.9 1-3.7 1.9-5.9 1.1zM334.1 368.1c.6 0 1.3-.1 1.9-.1.2 1.3.4 2.5.7 4.2-1.6-1.2-2.4-2.4-2.6-4.1z" fill="#bbe6fe"/><path d="M533.3 342.7c1.4 1 2.3-2 3.8-.5.4 2-2.2 2.2-2.3 3.9l.1-.1c-1.9-.5-2.7-1.5-1.5-3.4l-.1.1z" fill="#f1fdfd"/><path d="M429.9 630c-1.8-.8-3.2-2.2-4.5-3.6.3-.2.5-.4.7-.6 1.7.8 3.1 2 4.3 3.4 0 .3-.2.5-.5.8zM336.3 345.6c-1-.6-2.4 2.3-3.3-.3.4-.4.7-.9 1-1.3.8.1 1.6.2 2.5.3 0 .4-.1.9-.2 1.3z" fill="#bbe6fe"/><path d="M425.4 626.4c-1.4-1-2.8-2-4.7-3.4 2.9-.1 4.2 1.2 5.4 2.8-.2.2-.4.4-.7.6z" fill="#bbe6fe"/><path d="M569.8 646c-.5.3-1 .5-1.5.8-.3-1.6-.6-3.2 1.5-3.9-.1 1-.1 2 0 3.1z" fill="#f1fdfd"/><path d="M434.1 551c-2.1 1.5-4.3.8-6.5.5 2.2-.7 4.3-.8 6.5-.5zM569.4 693.3c-.6-1.6-.5-3.3-.1-5 .6 1.7.7 3.4.1 5zM265.8 270.8c.6-1.3.5-3.9 3.2-1.9v.1c-.9-.3-1.1.2-.9 1l-.1.1c-.7.3-1.3.6-2 .9 0-.1-.2-.2-.2-.2zM336 350.4c.1-.8.1-1.6.2-2.4.4.8.1 1.6-.2 2.4zM335.8 361.4c-.1-.3-.1-.5-.1-.8.1.2.2.4.3.5.1.1-.1.2-.2.3zM245 265.9c-1.1 1.2-2.6.9-3.9 1.1l-.1-.1c1.1-1.2 2.6-1 4-1zM342 262l.6-.6c-.7-.4-.5.2-.6.6zM475.7 200.4c.1.6.3 1.2.4 1.8 0 .4-.2.9-.3 1.4-1.7-.9-.6-2.1-.1-3.2zM245 265.8c.6-1.4 2-.5 3-1l.1.1c-.1.1-.2.2-.2.3 0 .2.1.4.2.6l-.1.1c-1-.7-2 0-3-.1 0 .1 0 0 0 0zM569.7 698c-1-.5-.6-1.2-.2-1.9.7.6.7 1.3.2 1.9zM569.5 678.4c-.8-.7-.8-1.4.1-2.1 0 .7 0 1.4-.1 2.1zM344 286.8c-.1.8-.5 1-1.2.8-.1 0-.2-.2-.3-.3.5-.2.9-.4 1.4-.6l.1.1zM272.9 283.8c-.1-.9.1-1.7 1.1-1.9l.1.1c.2 1 0 1.7-1.1 1.9l-.1-.1zM219 238.9c-.2-.2-.4-.4-.6-.5.1-.1.3-.2.4-.3.1.2.2.5.2.8.1-.1 0 0 0 0zM198.7 189.6c.4-1 1.2-1.1 2.1-1.2.1.2.2.4.3.5-.4.9-1.2 1-2 1.1-.1-.1-.3-.2-.4-.4z" fill="#bbe6fe"/><path d="M466.5 136.4c-.2-.2-.4-.5-.4-.7 0-.2.3-.3.4-.5.1.1.3.3.3.4-.1.2-.2.5-.3.8z" fill="#f1fdfd"/><path d="M193.1 703c-.2.4-.3.9-.5 1.3-.2-.1-.4-.3-.5-.4.3-.3.6-.7.9-1l.1.1zM402 38.9l.9.3c-.6.6-.7 0-.9-.3zM283.7 278c.1.1.3.2.3.3 0 .1-.2.2-.3.3-.1-.1-.3-.2-.3-.3 0-.1.2-.2.3-.3zM574 603.3s0 .1 0 0c0 .1 0 0 0 0zM274 281.9c.2-.2.3-.4.5-.6.1.1.2.3.2.4-.2.2-.4.3-.6.4 0-.1-.1-.2-.1-.2zM575.4 629.3l.3.1-.2.1zM435.6 550.7l-.2.1v-.3zM450.6 550.7h-.2l.2-.2zM262 194.9c-.7 0-1.1-.3-1-1 .3.3.6.7 1 1zM372 77.9c.4.9 0 1.2-.8 1.2l-.1-.2c-.2-.7.4-.9.9-1z" fill="#bbe6fe"/><path d="M193 702.9c.2-.1.3-.2.5-.3-.1.2-.3.3-.4.5 0-.1-.1-.2-.1-.2z" fill="#bbe6fe"/><path d="M453 226.9l.6-.6c0 .2 0 .4.1.7-.3-.1-.5-.1-.7-.1 0-.1 0 0 0 0z" fill="#f1fdfd"/><path d="M372 77.9c.2-.2.4-.3.6-.5v.4c-.2.1-.4.1-.6.1zM440.2 715.1l-.2-.1.3.1z" fill="#bbe6fe"/><path d="M564 718c-.1.1-.2.2-.2.3 0-.1.1-.3.1-.4 0-.1.1.1.1.1z" fill="#f1fdfd"/><path fill="#bbe6fe" d="M435.4 563.7l.1-.3.1.3zM193.4 789.4l.1-.2.1.2-.1.3zM282.5 275.1c.1.1.2.2.2.3 0 .1-.2.2-.3.3-.1-.1-.2-.2-.2-.3 0-.1.2-.2.3-.3z"/><path d="M404 27.5c-7.8-3.2-15.4-.7-22.9.8-4.9 1-9.8 2.4-14.3 4.9-2.4.5-4.8 1.1-6.6 3.6 2.7-.5 5.1-1 7.4-1.5.1.3.3.5.4.7-9.1 4-18.1 8-27.2 11.9-.5.2-1.3 0-2-.1 0-.3.1-.6.1-1 5.9-3.6 13.2-4.8 18-10.6 1.9-2.3 4.8-3.5 7.6-4.6 12.6-5 25.5-8.3 39.3-6.7.2 1 .2 1.8.2 2.6zM462 235.8c0 1.6.5 2.5 2.2 1.5 1.9-1.1 4-2.1 4.9-4.4 1.7 0 1.8-3 3.9-2.1-4.2 8.7-11.7 11.2-21.9 6.6 4.2-.5 7.5-1 10.9-1.6z" fill="#163748"/><path d="M356.7 26.1c2.5.7 2.3 2.8 2.5 4.5.2 1.8-1.5 2.4-2.6 2.1-1.9-.6-1.3-2.7-1.5-4.2-.2-1.3.2-2.4 1.6-2.4z" fill="#bbe6fe"/><path d="M463 234.8c.7 1.4-.4 1-1 1.1-.6-1.2.4-1 1-1.1z" fill="#163748"/><path d="M633 419.8c0-.2.1.8-.1 1.7-.9 3-1.8 7.6-4.6 7.4-2.9-.3-.9-4.7-1.3-7.3-.3-1.8-.1-3.6 0-5.5 0-1.9.1-4 2.5-4.1 2.3 0 3.4 1.8 3.6 4 0 1-.1 1.8-.1 3.8zM634.8 354.9c1.5 0 3-.1 4.4 0 1.2.1 3-.6 3.1 1.4 0 1.3-1.5 1.6-2.7 1.6h-9.4c-1.2 0-2.6-.3-2.6-1.7 0-1.6 1.7-1.2 2.7-1.3 1.6-.1 3 0 4.5 0z" fill="#f1fdfd"/><path d="M567.8 806.1l-1.2-.3c.5-.4.8-1.1 1.6-.5 0 0-.3.5-.4.8zM314 133.9c-1.4-.8-2.9-1.6-4.4-2.4.4-1.2 2.7-1.2 2.2-3.3-.7-.5-2 .6-3.1-.9 7.4-6.3 14.8-12.5 22.2-18.8-.1.7-.3 1.3-.4 2v.1c-.8.6-1 1.4-1.1 2.3 1.2-.2 1.4-1 1.5-1.9l.6-.6c.8-1.6 1.6-3.1 2.3-4.7 1.4-.7 2.4-1.6 2.7-3.2l2.7-3.9c.5.1 1 .2 1.5.2-.1.7-.3 1.5-.4 2.2-1.5 4.5-2.9 10.2-5.8 12.8-3.5 3.2-6.1 7.1-9.6 10.2-3 2.6-5.5 5.8-8.3 8.6-.4.7-.9 2.5-2.6 1.3z" fill="#163748"/><path d="M248.9 149.6c-3.3.1-3.6-2.5-3.9-4.7-.3-1.9 0-4 0-5.9 0-.7 0-1.4.1-2.2l-.1.1c1.7-1.7 2.8-3.7 3.1-6.1l-.1.1c3.1-1.7 4.8-4.6 7.1-7.1l-.1.1c2.2-1.1 4.4-2.2 6.1-4.1l-.1.1c2.4 0 4.1-2.8 7.7-1.9-10.2 8.7-17.9 18.5-19.8 31.6z" fill="#bbe6fe"/><path d="M248.9 149.6c1.9-13.1 9.5-22.9 19.7-31.6-3.6-.9-5.3 1.9-7.7 1.9 4.2-4.7 10.1-4.8 16.3-6.5-13.5 12.7-28.4 23.7-23.3 44.9-1.3.1-2.5-.4-3.6-1.1-.7-2.4-3-4.6-1.4-7.6zM282.5 128c2.5.3 4.5-3.2 7.5-.5 1.1 1 1.7 1.6.7 2.4-3.4 2.7-5.8 7.9-11.6 4.9-1.3-.7-1.9 1-2.9 1.4-1.1.4-1.2 3.1-3.3 1.6.4-3.4 4.2-4 5.4-6.7 1.9-.5 3.3-1.5 4.2-3.1z" fill="#163748"/><path d="M278.4 131.1c-1.2 2.7-5 3.4-5.4 6.7v.1c-1.4.1-2 .6-1 2-3.6.5-3.5 3.5-4 6-.7.6-1.3 1.1-2.1 1.8-.9-2.1.3-3.8.7-5.6.6-2.8 3-5.1 2.3-8.2 2.2.2 1.3-2.8 3-3.1 2.3.1 4.5-2.3 6.5.3z" fill="#bbe6fe"/><path d="M269 133.9c.6 3.1-1.7 5.4-2.3 8.2-.4 1.8-1.6 3.5-.7 5.6.8-.7 1.4-1.2 2.1-1.8-.4 3.5 1.5 7.9-3.3 10-2.7-8.2 0-15.3 4.2-22zm-3.6 18.2c.5-1 .7-1.9.2-2.9-.8 1-.5 1.9-.2 2.9z" fill="#163748"/><path d="M325.3 60.4c1.1-2 2.6-3.7 4.4-5 1 4.5-.2 8.2-3.5 11.1-.7-2.3 2.3-4.4-.9-6.1z" fill="#bbe6fe"/><path d="M255 123.8c-2.3 2.5-4 5.4-7.1 7.1 1.7-3 3.6-5.9 7.1-7.1z" fill="#163748"/><path d="M336.7 102.4c-.3 1.6-1.4 2.5-2.7 3.2-1.1-2.7.4-3.3 2.7-3.2z" fill="#bbe6fe"/><path d="M261.1 119.8c-1.7 1.9-3.9 3-6.1 4.1 1.2-2.5 3.2-4 6.1-4.1zM272 130.8c-1.8.3-.8 3.2-3 3.1-.2-1.7.5-3.4 1.7-4.4 2.2-1.8.7 1 1.3 1.3zM248 130.8c-.3 2.4-1.4 4.4-3.1 6.1.1-2.5.8-4.7 3.1-6.1z" fill="#163748"/><path d="M340.9 98.7c-.5-.1-1-.2-1.5-.2-.5-1-.7-1.9.6-2.4.4-.1 1.1 0 1.3.3.8.9.9 1.8-.4 2.3z" fill="#bbe6fe"/><path d="M274.5 125.3s-.5.3-.9.6c0-.4-.2-.9-.1-1.2.2-.4.6-.9 1-.9s.7.5 0 1.5zM277 120.9c0 .9-.3 1.6-1.1 2-.2.1-.7-.1-.7-.2 0-1.2.5-1.8 1.8-1.8zM279.7 118c-.4.3-.7.9-1.1.9-.6.1-.7-.5-.4-.9.3-.4.7-.6 1.1-.9.2.3.3.5.4.9zM245 136.8c0 .7 0 1.4-.1 2.2-1.1-.8-1.3-1.5.1-2.2zM276.9 120.8c.2-.3.3-.6.5-1l.3.3c-.2.3-.5.5-.8.7.1.1 0 0 0 0z" fill="#163748"/><path d="M330.6 110.5v-.1c.4 0 .7 0 1.1-.1l-.6.6c-.2-.1-.3-.3-.5-.4z" fill="#bbe6fe"/><path d="M272.9 127.2c-.1.2-.2.4-.4.7-.1-.1-.3-.2-.3-.3.1-.2.2-.4.3-.7.1.1.2.2.4.3zM239.1 258.1c1.3-.5 2.6-1 3.9-1.6 1.7-.8 1.9.3 1.9 1.5-1.7.4-3.3 1-5 1.4-2.9.6-.3-1.1-.8-1.3z" fill="#163748"/><path d="M234.9 267.1c-1.9-.1-3.9-.3-6.1-.4 4.8-2.5 4.8-2.5 6.5.1-.1 0-.3.2-.4.3z" fill="#bbe6fe"/><path d="M237.2 260.9c-.7.1-1.3.3-1.9.4 0-.1-1.1.2-.1-.3.5-.3 1.1-.7 1.6-1 0 .2.1.5.4.9z" fill="#163748"/><path d="M187.1 203c-1.2 4.9-4.4 9.4-2.8 14.7-1.9-5.4-.9-10.3 2.7-14.8l.1.1zM193 196.9c-.4 1.1-1.2 1.8-3 2.2.9-1.5 1.6-2.2 2.9-2.4 0 .1.1.2.1.2zM187.9 201.8c-.1-.8.2-1.6 1-1.8.2 0 .4.2.6.4-.5.5-1 1.1-1.6 1.6.1-.1 0-.2 0-.2z" fill="#bbe6fe"/><path d="M187 202.9c.1-.6.2-1.1.9-1.1l.1.1c0 .6-.2 1.1-1 1 .1.1 0 0 0 0z" fill="#bbe6fe"/><path d="M488.8 554c.9.2 1.8.4 2.6.6.4 1.2-.6 1.2-1.1 1.5-1.5.9-3.7 1.4-3.6 3.7.1 2.3 2.1 3.3 3.8 4.2 1 .5 2.2.8 3.3 1.2 1.8.7 3.1 1.2 1 3.3-2.8 2.8-2 5.4 1.3 7.2 2.1 1.1 3.9 2 4.8 4.6 1.5 4.1 4.7 5 8.9 3.6 2.9-.9 6.1-1.9 9.9-.7-7.2 3.3-14.8 3.8-21.6 6.7-.2.1-.6-.1-.9-.2 1.3-4.6-4.5-3.9-5.1-6.7-.9-3.9-1-8.1-3.1-11.7-.1-.2.2-.7.4-.8 1.1-.9 3-1.8 1.6-3.2-.8-.9-2.6-2.3-4.4-1.1-1.2.8-1.8.6-1.5-.9 0-.2.2-.3.2-.4-.5-3-3.4-4.8-3.8-8.2 2.4.1 5.2-.4 7.1-2.7h.2zm13 30.7c-2.1-3.5-4.4-3.9-7.4-3.4 1.7 2.6 4 2.8 7.4 3.4zM494.2 611.7c3.6.7 6.6 4.1 11 3-1.8-3.2-4.6-4.9-8.5-6.2 5.3-2.1 7.6 2.3 10.9 3.7.3.4.6.8 1 1.2 1.2 2.2 2.8 1.7 5.5.6-2.2-.5-3.6-.9-5-1.2l-1-1c.5-3.4 2.9-2.5 5-2.2 2.2.4 4.6 1.6 4.7 3.8.2 3.3-4.1 2-5.5 4.4 4.7.9 8.6-2.4 13.5-1.9-1.6 2.2-4.2 1.9-5.9 3.4.9 1.1 3.5 1.6 2.2 3.5-1.8 2.5-4.5 3.5-7.8 3.3.5-3.1 3.5-2.3 4.5-4-1.2-1.3-2.7-1.1-4.2-1.1-2.3 0-4.6.5-5.8-2.4-.5-1.4-2.3-.8-3.6-1-4.4-.8-8.9-1.3-11.9-5.3.4-.1.6-.3.9-.6zM507.3 593c-3.4-.3-6 1-8.7 1.5-1.3.2-3 1.8-3.6-.6-.5-1.9 1.4-2.7 2.7-3 3.5-.8 7.1-1.5 10.7-1.7 4.1-.2 8.2-2 13.5-.6-5.4 3.6-11.5 4.6-15.3 10.1h17c-4.6 2.1-8.4 3-12.3 3.2-2.6.1-5.7.8-7.3-1.8-1.8-3.1 1.6-4.6 3.3-7.1z" fill="#163748"/><path d="M488.9 553.9c-5.1-.3-9.8-1.9-13.3-5.8-2.5-2.8-2.2-5.4 1-7.5 5.4-3.5 19.6-1.7 24 3.1 1 1.1 2.1 2.2.9 4.1-5.6-5.4-12.4-6.5-19.8-5.4-1.5.2-3.7.3-4 2.3-.3 1.8 1.5 2.8 2.9 3.7 1.8 1.1 3.6 2.3 5.9 2.5.6-1.7-1.5-2.4-1.3-3.9 4.5.9 5.5 2.9 3.6 7.1 0-.1.1-.2.1-.2zM523.1 623.2c3.1 5.4 7.1.8 10.4 2.1-1 2-3 2-4.5 2.8-1.2.6-3 .7-2.9 2.8.1 2.4-.3 1.4-1.8.6-2.3-1.2-4.9.6-7.5.8-1.1.1-2.5.9-3-.6-.6-1.8 1.2-2 2.3-2.6 2.6-1.3 7-.2 7-5.9z" fill="#163748"/><path d="M530 508.9c-3.5.4-6.5-.8-9.2-2.9-1.6-1.2-2.4-2.8-.7-4.6 1.5-1.7 3.1-1.7 4.7-.1 2.3 2.1 4.4 4.4 5.2 7.6zM544 531.1c-.1 1.8-.4 3.7-2.6 3.5-2.6-.2-2.7-2.7-2.9-4.6-.2-1.6 1.2-2.8 2.8-2.8 2.6 0 2.6 2.1 2.7 3.9zM518 665.9c-.3-.5-.6-1-.8-1.6l.6-.3c0 .7.1 1.3.2 1.9z" fill="#f1fdfd"/><path d="M493.4 612.4c-.8-.9-1.1-1.9-.5-3 .1-.2.6-.3.7-.2.9.7.3 1.7.6 2.6-.3.2-.5.4-.8.6z" fill="#163748"/><path d="M530 508.9c.1.1.2.1.3.2-.1-.1-.2-.2-.3-.2z" fill="#f1fdfd"/><path d="M405.9 128.9c1-.2 2.3-.7 1.6-1.7-2.1-3.4-2.2-3.3 2.2-5 .2.3.3.7.5 1 0 .3-.1.5-.3.7l-.6.6c.2 0 .4.1.6.1 0-.3-.1-.5-.1-.8.9 0 1.9.4 2.2-.9l-.1.1c1.6.1 3-.2 4-1.5 1.6.3 3.1.3 4.4-.8.5 1.2 1.4 1.2 2.3.5 2.6 1.9 5.9 2.6 8.4 4.9 2.3 2.1 1.4 3.5-.5 5.1-3.6 3-8.1 1.6-12.2 2.6-2.1.5-4.5-.3-4.5-3.6 0-1.6-.4-3.2-.6-4.8-2.7.6-3.7 3-5.2 4.6-1.5 1.7-1.9.5-2.1-1.1z" fill="#163748"/><path d="M411 182.4c-3.6 2.5-7.1 5-10.7 7.5-3.4-2.6-7.5-.4-11.1-1.4-2.1-1.9-6.1-.8-7.1-4.5.9-1.8 2.6-1.9 4.3-1.9 4.7-.1 9.3-.4 13.9 0 3.5.3 7.2-1.8 10.7.3z" fill="#bbe6fe"/><path d="M411 182.4c-3.5-2.1-7.1 0-10.7-.3-4.6-.4-9.3-.1-13.9 0-1.7 0-3.4.2-4.3 1.9-2.2-.7-5 3-6 .4-1.1-2.9 3.1-2.4 4.6-3.7.8-.7 1.7-1.4 2.6-2.1 2.5.3 4.1-1.7 6.5-2.1 6.3-1 12.5-.9 18.6.9.9 1.7 2.9 2.1 4 3.4 2.1 2.5-.6 1.3-1.4 1.6z" fill="#163748"/><path d="M408.3 177.4c-6.1-1.8-12.3-1.9-18.6-.9-2.3.4-4 2.4-6.5 2.1 2.9-6.4 4.6-7.4 10.9-6.8 1.3.1 2.7 0 4-.2 5.5-.9 7.8.3 10.2 5.8z" fill="#bbe6fe"/><path d="M389.1 188.5c3.6 1 7.7-1.1 11.1 1.4-3.3 2.8-8.8 3.5-12 1.3-2.3-1.7.2-2 .9-2.7zM403.2 157.2c-.2 2.3-1.7 3.5-3.7 3.7-1.1.1-1.6-1.2-1.3-2.2.5-2.1 2-3.4 4-3.7 1.4-.3.7 1.3 1 2.2z" fill="#163748"/><path d="M350.2 159.7c-.4-1.4.1-2.6.9-3.8 2.4-.9 3.7 1 3.5 2.5-.4 2.5-2.8 1.2-4.4 1.3zM422.7 121.1c-1 .6-1.8.7-2.3-.5 1-1 1.9-1.3 2.3.5zM353.3 153.5c-.2.1-.3.1-.5.1 0-.1-.1-.2-.1-.3.2 0 .4.1.6.2z" fill="#bbe6fe"/><path d="M400.1 122.9c-.5.3-1 .7-1.5 1 .5-.4.4-1.6 1.5-1zM393.5 47.8c3.7-.2 6.2-.8 7.8 2.4-2.8.5-4.8-.2-7.8-2.4zM367.7 35.4c.8-.5 1.9-1.1 2.2 0 .2.6-1.1.7-1.8.7-.2-.2-.3-.5-.4-.7zM368 87.9l-.1.1.1-.1zM369.4 79.2c-.3.2-.6.3-.9.5.1-.3.3-.6.4-.9.1.1.3.3.5.4zM403 50.9l-.6.6c-.1-.1-.2-.3-.3-.4.3-.1.6-.2.9-.2-.1-.1 0 0 0 0zM402.9 50.8c.1-.2.2-.4.4-.7.1.1.2.2.4.3-.3.2-.5.3-.8.4.1.1 0 0 0 0zM373.2 36.1c-.3.2-.6.5-.9.7l-.3-.3c.3-.2.6-.5.9-.7 0-.1.3.3.3.3zM465.9 257.8l.3-.6s.3.1.4.2c-.2.1-.4.3-.7.4.1.1 0 0 0 0zM245 160.9c8.3 1.4 16.4 3.9 24.9 1.9 3.6-.8 7.1-2.2 10.6-3.3.4.3.8.5 1.1.8.3-.1.7-.1 1-.2l.4-.2c2.5-.7 5-1.4 7.4-2.3.6-.2 2.1-.1 1.5-1.6-.6-1.4-1.6-.6-2.4-.3-.3-.4-.5-.7-.8-1.1 1.7-1.8 3.3-3.8 6.2-3.6.5 3 2.2 1.4 3.4.8 6-2.8 11.5-6.5 16.2-11.2 1.3-1.3 2.7-2.4 4.1-3.5.2.4.4.9.7 1.3-10.2 18.1-27.9 23.2-46.5 26.8-7.2 1.4-14.6 1-21.7-1-2.2-.6-4.9-.6-6.1-3.3zm48.4-7.6l.2.2.1-.2h-.3z" fill="#163748"/><path d="M299 147.9c.2-3.2 2.2-4.1 5-4-.9 2.3-2.3 4-5 4zM306 141.9c-.4-2.4 1.1-2.9 3-3 .4 2.4-1 3-3 3zM342.6 133.7c-.2 1.5-.9 2.7-2.3 3.4-.4-.1-.7-.3-1.1-.4-.2-2 .9-3.2 2.4-4.2.4.4.7.8 1 1.2zM321.7 133.5c.1-1.2.9-2 2-2.4.2.4.4.7.7 1.1-.1 1.2-.9 1.9-1.8 2.4-.4-.4-.6-.7-.9-1.1zM295 150.9c-.6-1.9.6-2.1 2-2 .6 1.9-.2 2.4-2 2zM327.2 128.2c-.2 1.2-1.1 2.7-1.9 2.1-1.5-1.3.1-2.3 1.2-3.2.2.3.5.7.7 1.1zM336.8 141.5c-.6.4-1-.3-1-.6 0-.8.5-1.4 1.3-1.8.7-.3 1 .3 1 .6.1.9-.4 1.5-1.3 1.8zM331.5 121.2c-.4.7-.7 1.4-1.1 2.1l-.8-.8c-.2-.9.1-1.5 1-1.8.4.2.6.4.9.5zM327.7 125.5c-.1-.8 0-1.6 1-1.8.4.2.7.4 1.1.6 0 1-.5 1.7-1.3 2.2-.3-.3-.5-.7-.8-1zM297 148.9c0-1.7.7-1.9 2-1-.2 1.3-.5 2.4-2 1zM322.5 134.6c-.1.8-.5 1.3-1.3 1.5-.4-.2-.8-.3-1.3-.5.2-1 .7-1.7 1.7-2.1.4.4.6.7.9 1.1z" fill="#163748"/><path d="M326.5 127.1c.1-.8.4-1.4 1.2-1.5.2.3.5.6.7 1-.2.8-.4 1.5-1.3 1.7-.1-.5-.4-.9-.6-1.2zM309 138.9c-.4-1.1.1-1.2 1-1 0 .4.2.8.1 1.1-.4.7-.7-.1-1.1-.1zM340.3 137.1c-.2.5-.5 1.2-1.2.6-.1-.1.1-.7.1-1.1.4.3.7.4 1.1.5zM318.6 136.9c.1-.6.4-1.1 1.1-1.1.2.5.3.9.5 1.4 0 .6-.3 1-.9 1.1-.2-.5-.4-.9-.7-1.4zM310 137.9c-.2-.9.1-1.2 1-1 .1.4.8.7.1 1-.3.2-.7 0-1.1 0zM321.3 136.1c-.3.4-.7.7-1 1.1-.2-.5-.3-.9-.5-1.4l.2-.2c.4.2.8.3 1.3.5zM311 136.9c-.2-.9.1-1.2 1-1 .1.4.7.6.1 1.1-.5.6-.7-.1-1.1-.1zM312 135.9c-.2-.8.1-1.3 1-1 .1.4.7.6.1 1.1-.5.5-.7-.1-1.1-.1zM313 134.9c-.3-.9.1-1.2 1-1 .1.4.7.6.1 1.1-.5.6-.7-.1-1.1-.1zM328.7 123.7c0-.7.3-1.1 1-1.2l.8.8c.1.5-.1.9-.7 1-.4-.2-.8-.4-1.1-.6zM330.7 120.7c.2-.5.2-1.4 1-.9.8.5.1 1-.2 1.4-.3-.1-.5-.3-.8-.5zM332.5 117.9c.1.2.3.4.3.7 0 .1-.2.2-.3.3-.1-.2-.3-.4-.3-.7 0-.1.2-.2.3-.3zM337.9 160c-.6-.2-1.3-.4-.7-1.2.6-.8.9-.1 1.2.4-.2.4-.3.6-.5.8zM323.7 131.1c.3-.6.7-1.2 1.3-.4.6.7-.1 1.1-.7 1.5-.2-.3-.4-.7-.6-1.1zM304 143.9c-.1-.4-.7-.6-.1-1.1.5-.5.7.1 1.1.1.4 1 0 1.3-1 1zM305 142.9c-.1-.4-.7-.6-.1-1.1.5-.5.7.1 1.1.1.4 1.1 0 1.3-1 1zM268 145.9c.5-2.5.4-5.5 4-6-.6 2.5-1.4 4.8-4 6zM280.6 159.5c1.4-1.4 3.1-2.5 5.1-2.9.3.3.6.7.9 1-1.2.8-2.3 1.5-3.5 2.3 0 0-.4.2-.3.2-.3.4-.6.8-1 .2-.5-.3-.9-.6-1.2-.8zM272 139.9c-1-1.3-.4-1.8 1-2 1 1.3.4 1.9-1 2z" fill="#163748"/><path d="M285.7 156.6c.3-1 1.1-1.2 2-1.3.2.3.5.7.7 1-.6.4-1.2.9-1.8 1.3-.3-.3-.6-.7-.9-1z" fill="#163748"/><path d="M287.6 155.3c.4-.3.8-.5 1.1-.8.3.4.5.7.8 1.1-.4.2-.8.5-1.2.7-.2-.3-.4-.7-.7-1zM316 347c-.6-2 .5-2.3 2.1-2.1-.1 1.3-1.3 1.5-2.1 2.1z" fill="#163748"/><path d="M318 344.9c-.5-1.2.4-1.1 1.1-1.1.6 1.4-.4 1.1-1.1 1.1zM288.9 310.7c1.6-2.2 3.6-3.8 6.2-4.7-1.2 2.5-3.5 4-5.7 5.5-.1-.3-.3-.6-.5-.8zM298.4 304.1c-.6.9-1.1 2.1-2.5 1.6.2-1.7 1.5-1.3 2.5-1.6z" fill="#163748"/><path d="M289.4 311.5c-.4.9-1.1 1.5-2 1.9l-.6-.6c.3-1.1 1-1.8 2.1-2.1.2.2.4.5.5.8zM305.2 303.2c0 .8-.2 1.6-1.1 1.9l-.6-.6c.2-.8.4-1.5 1.4-1.6l.3.3z" fill="#163748"/><path d="M304.9 302.8c.2-.3.5-.7.7-1 .1.1.4.3.3.3-.2.4-.5.7-.7 1.1l-.3-.4zM307 299.9c-.1.3-.3.7-.4 1-.1-.1-.2-.2-.4-.3.3-.2.5-.4.8-.7zM307 299.9c.1-.2.3-.5.4-.7.1.2.2.4.3.5-.2.1-.4.2-.7.2zM262 194.9l-1-1c0-.6.1-1.7.8-1.4 5.4 2.4 11.2 3.3 17 4.4-6 2.3-11.5 1.2-16.8-2zM452.1 559.4c-7.5 2.8-15.6 1.2-23.5 2.3-5.5.7-11.1 1.1-16.5 2.6-1.3.4-2.8 1.3-3.7.3-1.2-1.5-.5-3.5-.1-5.3.4-1.9 2.1-1.2 3.3-1.2 13.6-.3 27.1-.7 40.5 1.3zM518.9 748c.2 1.4 1 2 2.4 2-1.1 9.5-.8 19 .1 28.3.6 5.8 2.6 11.9 10.9 11.3-.8 2.4-5.6 1.7-2.9 5.3-1.9 0-3 .6-2.5 2.9.3 1.7 1 3.5.3 5.4-2-.7-1.7-2.4-2-3.7-.9-3.8-.7-8-4.8-10.4-.8-.4-1-2-1.2-3.2-1-6.8-1.9-13.6-1.4-20.6.3-5.2-.6-10.5.3-15.8.1-.6.1-1.2.8-1.5zM578.3 693.8c-2.7.3-2.3-1.7-2.2-3.2.1-4.2.3-8.4.5-12.6 1.5-11.7 1.7-23.5 1.4-35.4-.1-3.4.1-5.9 4.6-4.9 1.2.3 2.7 0 4-.3 1.8-.4 2.4.3 2.4 2-.1 15.3 2.3 30.5 2.2 45.8 0 3.4-.6 5.4-4.6 4.8-1.7-.2-3.6.3-5.4.7-1.9.3-3.7.6-2.9 3.1zM219.2 658.5c-2.7 9-5.4 17.9-7.2 27.1-1.3 6.5-1.1 6.3-7.5 4.8-2.9-.7-3.7-2.2-3.6-4.8 3.3-13.5 6.6-26.9 9.1-41.1 3.1 2.8 5.7 5.1 8.9 6.9 3.2 1.8-.4 4.7.3 7.1zM442.6 713.3c.4-.3.6-1.3 1.2-.6.4.4.1 1.1-.5 1.5-.3-.4-.5-.6-.7-.9zM248 265.9c-.1-.2-.2-.4-.2-.6 0-.1.1-.2.2-.3.6 0 1.2.1 1.8.1-.1.4-.1.9-.4 1.2-.5.5-1.1.4-1.4-.4zM448 156.9c-1.3-.1-1.6-.8-1-1.9 1.6-.1 2 .6 1 1.9zM449 157.9c-.3.1-.5.2-.8.3-.1-.4-.1-.8-.2-1.2 1.3-.8 1.1.2 1 .9zM447 154.9c-1.1.5-1.1-.1-.9-.9.3-.1.5-.2.8-.3 0 .3 0 .8.1 1.2zM411.7 121.4c.7-.6 1.4-.8 2.1 0-.6.2-1.1.4-1.7.6-.1-.2-.3-.4-.4-.6z" fill="#163748"/><path d="M412.1 121.9c0 .3-.1.7-.2 1l.1-.1-1.8.3c-.2-.3-.3-.7-.5-1 .6-.3 1.3-.5 1.9-.8.2.3.4.5.5.6z" fill="#163748"/><path d="M400.9 125.8c.1-.1.2-.2.3-.4l.2.2c-.1.1-.2.2-.4.3.1 0-.1-.1-.1-.1z" fill="#f1fdfd"/><path d="M268 269.9c-.2-.8 0-1.3.9-1 0 .4-.1.8-.1 1.2-.2-.1-.5-.1-.8-.2z" fill="#163748"/><path d="M331.1 110.9c-.1.9-.3 1.8-1.5 1.9 0-1 .3-1.8 1.1-2.3.1.1.2.3.4.4zM265.4 152.1c-.3-1-.6-1.9.2-2.9.5 1 .3 1.9-.2 2.9zM501.8 584.7c-3.4-.6-5.8-.8-7.4-3.4 3-.4 5.3-.1 7.4 3.4zM509 612.9c1.4.3 2.7.7 5 1.2-2.7 1.1-4.3 1.5-5.5-.6.2-.3.4-.5.5-.6z" fill="#bbe6fe"/><path d="M508.1 611.8l1 1c-.2.2-.3.4-.5.5-.3-.4-.6-.8-1-1.2.1 0 .3-.1.5-.3zM410.3 123.2l1.8-.3c-.3 1.3-1.3 1-2.2.9l.1.1c.2-.2.3-.4.3-.7zM409.8 123.8c0 .3.1.5.1.8-.2 0-.4-.1-.6-.1.2-.3.4-.5.5-.7.1 0 0 0 0 0zM288.4 156.3c.4-.2.8-.5 1.2-.7.9-.3 1.8-1.1 2.4.3.6 1.5-.9 1.4-1.5 1.6-2.4.9-5 1.5-7.4 2.3 1.2-.8 2.3-1.5 3.5-2.3.6-.3 1.2-.8 1.8-1.2zM281.7 160.2c.5.6.8.2 1-.2-.3.1-.6.2-1 .2zM293.4 153.3h.3v.2z" fill="#bbe6fe"/></svg>